<mxfile host="app.diagrams.net" agent="Mozilla/5.0 (Windows NT 10.0; Win64; x64) AppleWebKit/537.36 (KHTML, like Gecko) Chrome/133.0.0.0 Safari/537.36" version="26.1.0">
  <diagram name="Pagina-1" id="ch-219JEEad0Wv71bElU">
    <mxGraphModel dx="1259" dy="655" grid="1" gridSize="10" guides="1" tooltips="1" connect="1" arrows="1" fold="1" page="1" pageScale="1" pageWidth="1169" pageHeight="827" math="0" shadow="0">
      <root>
        <mxCell id="0" />
        <mxCell id="1" parent="0" />
        <mxCell id="IOpTdZNfMsy9UCbYXnR_-3" value="" style="rounded=0;whiteSpace=wrap;html=1;strokeWidth=3;" parent="1" vertex="1">
          <mxGeometry x="169.75" y="1675" width="700" height="790" as="geometry" />
        </mxCell>
        <mxCell id="IOpTdZNfMsy9UCbYXnR_-4" value="" style="rounded=0;whiteSpace=wrap;html=1;strokeWidth=2;" parent="1" vertex="1">
          <mxGeometry x="192.75" y="1830" width="660" height="620" as="geometry" />
        </mxCell>
        <mxCell id="LeE3TAbRjy3OZpj1xcED-46" value="" style="rounded=0;whiteSpace=wrap;html=1;fillColor=none;shadow=0;" vertex="1" parent="1">
          <mxGeometry x="198" y="1847" width="650" height="533" as="geometry" />
        </mxCell>
        <mxCell id="LeE3TAbRjy3OZpj1xcED-49" value="" style="rounded=1;whiteSpace=wrap;html=1;dashed=1;" vertex="1" parent="1">
          <mxGeometry x="215.88" y="1860" width="192" height="261" as="geometry" />
        </mxCell>
        <mxCell id="LeE3TAbRjy3OZpj1xcED-50" value="IN(/OUT)" style="text;html=1;align=center;verticalAlign=middle;whiteSpace=wrap;rounded=0;fontStyle=1" vertex="1" parent="1">
          <mxGeometry x="268.88" y="2092" width="90" height="30" as="geometry" />
        </mxCell>
        <mxCell id="LeE3TAbRjy3OZpj1xcED-51" value="" style="image;sketch=0;aspect=fixed;html=1;points=[];align=center;fontSize=12;image=img/lib/mscae/Docker.svg;" vertex="1" parent="1">
          <mxGeometry x="235.88" y="2092" width="32.98" height="27.04" as="geometry" />
        </mxCell>
        <mxCell id="rswGfNqE7HVyRveE84aS-66" value="" style="rounded=1;whiteSpace=wrap;html=1;" parent="1" vertex="1">
          <mxGeometry x="169" y="850" width="700" height="790" as="geometry" />
        </mxCell>
        <mxCell id="rswGfNqE7HVyRveE84aS-75" value="" style="rounded=1;whiteSpace=wrap;html=1;" parent="1" vertex="1">
          <mxGeometry x="192" y="1020" width="660" height="600" as="geometry" />
        </mxCell>
        <mxCell id="rswGfNqE7HVyRveE84aS-121" value="" style="rounded=1;whiteSpace=wrap;html=1;" parent="1" vertex="1">
          <mxGeometry x="210" y="1440" width="191" height="88.5" as="geometry" />
        </mxCell>
        <mxCell id="r9gsJSX6RoqanbE3VTS2-17" value="" style="rounded=1;whiteSpace=wrap;html=1;" parent="1" vertex="1">
          <mxGeometry x="422" y="1440" width="192" height="88.5" as="geometry" />
        </mxCell>
        <mxCell id="r9gsJSX6RoqanbE3VTS2-19" value="" style="rounded=1;whiteSpace=wrap;html=1;" parent="1" vertex="1">
          <mxGeometry x="635" y="1244" width="192" height="284.5" as="geometry" />
        </mxCell>
        <mxCell id="KNUL4cX1r_U77rqQdTEB-2" value="" style="rounded=1;whiteSpace=wrap;html=1;" parent="1" vertex="1">
          <mxGeometry x="168" y="24" width="700" height="770" as="geometry" />
        </mxCell>
        <mxCell id="KNUL4cX1r_U77rqQdTEB-1" value="&lt;font style=&quot;font-size: 10px;&quot;&gt;SQL&lt;/font&gt;" style="shape=cylinder3;whiteSpace=wrap;html=1;boundedLbl=1;backgroundOutline=1;size=15;" parent="1" vertex="1">
          <mxGeometry x="503" y="264" width="60" height="80" as="geometry" />
        </mxCell>
        <mxCell id="KNUL4cX1r_U77rqQdTEB-3" value="AWS" style="text;html=1;align=center;verticalAlign=middle;whiteSpace=wrap;rounded=0;" parent="1" vertex="1">
          <mxGeometry x="231" y="24" width="60" height="30" as="geometry" />
        </mxCell>
        <mxCell id="KNUL4cX1r_U77rqQdTEB-7" value="&lt;font style=&quot;font-size: 10px;&quot;&gt;Excel analyse&lt;/font&gt;" style="rounded=1;whiteSpace=wrap;html=1;" parent="1" vertex="1">
          <mxGeometry x="998" y="284" width="100" height="30" as="geometry" />
        </mxCell>
        <mxCell id="KNUL4cX1r_U77rqQdTEB-8" value="&lt;font style=&quot;font-size: 10px;&quot;&gt;Fluvius NPS&lt;/font&gt;" style="rounded=1;whiteSpace=wrap;html=1;" parent="1" vertex="1">
          <mxGeometry x="18" y="289" width="100" height="30" as="geometry" />
        </mxCell>
        <mxCell id="rswGfNqE7HVyRveE84aS-2" value="SFTP" style="endArrow=classic;html=1;rounded=0;entryX=0;entryY=0.5;entryDx=0;entryDy=0;entryPerimeter=0;exitX=1;exitY=0.5;exitDx=0;exitDy=0;" parent="1" source="KNUL4cX1r_U77rqQdTEB-8" target="KNUL4cX1r_U77rqQdTEB-1" edge="1">
          <mxGeometry width="50" height="50" relative="1" as="geometry">
            <mxPoint x="248" y="284" as="sourcePoint" />
            <mxPoint x="538" y="254" as="targetPoint" />
          </mxGeometry>
        </mxCell>
        <mxCell id="r9gsJSX6RoqanbE3VTS2-50" value="" style="ellipse;whiteSpace=wrap;html=1;fillColor=#FFF2CC;strokeColor=none;opacity=80;" parent="1" vertex="1">
          <mxGeometry x="380" y="1445" width="60" height="40" as="geometry" />
        </mxCell>
        <mxCell id="rswGfNqE7HVyRveE84aS-3" value="Power Query" style="endArrow=classic;html=1;rounded=0;exitX=1;exitY=0.5;exitDx=0;exitDy=0;exitPerimeter=0;entryX=0;entryY=0.5;entryDx=0;entryDy=0;" parent="1" source="KNUL4cX1r_U77rqQdTEB-1" target="KNUL4cX1r_U77rqQdTEB-7" edge="1">
          <mxGeometry x="-0.0001" width="50" height="50" relative="1" as="geometry">
            <mxPoint x="868" y="294" as="sourcePoint" />
            <mxPoint x="918" y="244" as="targetPoint" />
            <mxPoint as="offset" />
          </mxGeometry>
        </mxCell>
        <mxCell id="rswGfNqE7HVyRveE84aS-8" value="&lt;font style=&quot;font-size: 10px;&quot;&gt;Grafana instance&lt;/font&gt;" style="rounded=1;whiteSpace=wrap;html=1;dashed=1;" parent="1" vertex="1">
          <mxGeometry x="668" y="164" width="100" height="50" as="geometry" />
        </mxCell>
        <mxCell id="rswGfNqE7HVyRveE84aS-9" value="" style="rounded=1;whiteSpace=wrap;html=1;" parent="1" vertex="1">
          <mxGeometry x="191" y="449" width="660" height="285" as="geometry" />
        </mxCell>
        <mxCell id="rswGfNqE7HVyRveE84aS-10" value="python-web-server" style="text;html=1;align=center;verticalAlign=middle;whiteSpace=wrap;rounded=0;" parent="1" vertex="1">
          <mxGeometry x="221" y="444" width="120" height="30" as="geometry" />
        </mxCell>
        <mxCell id="rswGfNqE7HVyRveE84aS-14" value="&lt;font style=&quot;font-size: 10px;&quot;&gt;belpex&lt;/font&gt;" style="rounded=1;whiteSpace=wrap;html=1;" parent="1" vertex="1">
          <mxGeometry x="221" y="694" width="160" height="30" as="geometry" />
        </mxCell>
        <mxCell id="rswGfNqE7HVyRveE84aS-16" value="&lt;div&gt;&lt;span style=&quot;font-size: 10px;&quot;&gt;pv_imbalance SMA API&lt;/span&gt;&lt;/div&gt;" style="rounded=1;whiteSpace=wrap;html=1;dashed=1;fillColor=none;fontColor=light-dark(#BDBDBD,#EDEDED);" parent="1" vertex="1">
          <mxGeometry x="448" y="544" width="160" height="30" as="geometry" />
        </mxCell>
        <mxCell id="rswGfNqE7HVyRveE84aS-17" value="&lt;div&gt;&lt;span style=&quot;font-size: 10px;&quot;&gt;wt_imbalance&lt;/span&gt;&lt;/div&gt;" style="rounded=1;whiteSpace=wrap;html=1;" parent="1" vertex="1">
          <mxGeometry x="448" y="604" width="160" height="30" as="geometry" />
        </mxCell>
        <mxCell id="rswGfNqE7HVyRveE84aS-18" value="&lt;font style=&quot;font-size: 10px;&quot;&gt;MQTT broker&lt;/font&gt;" style="rounded=1;whiteSpace=wrap;html=1;" parent="1" vertex="1">
          <mxGeometry x="498" y="74" width="70" height="35" as="geometry" />
        </mxCell>
        <mxCell id="rswGfNqE7HVyRveE84aS-21" value="&lt;font style=&quot;font-size: 10px;&quot;&gt;traxes_imbalance_price&lt;/font&gt;" style="rounded=1;whiteSpace=wrap;html=1;dashed=1;" parent="1" vertex="1">
          <mxGeometry x="221" y="499" width="160" height="30" as="geometry" />
        </mxCell>
        <mxCell id="rswGfNqE7HVyRveE84aS-24" value="&lt;font style=&quot;font-size: 10px;&quot;&gt;Elia onbalans forecast RT 1m&lt;/font&gt;" style="rounded=1;whiteSpace=wrap;html=1;" parent="1" vertex="1">
          <mxGeometry x="18" y="544" width="100" height="30" as="geometry" />
        </mxCell>
        <mxCell id="rswGfNqE7HVyRveE84aS-25" value="" style="endArrow=classic;html=1;rounded=0;exitX=1;exitY=0.25;exitDx=0;exitDy=0;entryX=0;entryY=0.25;entryDx=0;entryDy=0;" parent="1" source="VrljPDt0W4JhfJKuqfeu-1" target="rswGfNqE7HVyRveE84aS-21" edge="1">
          <mxGeometry width="50" height="50" relative="1" as="geometry">
            <mxPoint x="558" y="544" as="sourcePoint" />
            <mxPoint x="608" y="494" as="targetPoint" />
          </mxGeometry>
        </mxCell>
        <mxCell id="rswGfNqE7HVyRveE84aS-26" value="" style="endArrow=classic;html=1;rounded=0;exitX=1;exitY=0.5;exitDx=0;exitDy=0;entryX=0;entryY=0.5;entryDx=0;entryDy=0;" parent="1" source="rswGfNqE7HVyRveE84aS-24" target="rswGfNqE7HVyRveE84aS-16" edge="1">
          <mxGeometry width="50" height="50" relative="1" as="geometry">
            <mxPoint x="558" y="544" as="sourcePoint" />
            <mxPoint x="608" y="494" as="targetPoint" />
          </mxGeometry>
        </mxCell>
        <mxCell id="rswGfNqE7HVyRveE84aS-27" value="&lt;font style=&quot;font-size: 10px;&quot;&gt;SMA datalogger&lt;/font&gt;" style="rounded=1;whiteSpace=wrap;html=1;" parent="1" vertex="1">
          <mxGeometry x="881" y="514" width="100" height="20" as="geometry" />
        </mxCell>
        <mxCell id="rswGfNqE7HVyRveE84aS-28" value="SMA API" style="endArrow=classic;html=1;rounded=0;exitX=1;exitY=0.25;exitDx=0;exitDy=0;entryX=0;entryY=0.75;entryDx=0;entryDy=0;strokeColor=light-dark(#ff0000, #ededed);dashed=1;" parent="1" source="rswGfNqE7HVyRveE84aS-16" target="rswGfNqE7HVyRveE84aS-27" edge="1">
          <mxGeometry width="50" height="50" relative="1" as="geometry">
            <mxPoint x="551" y="514" as="sourcePoint" />
            <mxPoint x="601" y="464" as="targetPoint" />
          </mxGeometry>
        </mxCell>
        <mxCell id="rswGfNqE7HVyRveE84aS-29" value="&lt;font style=&quot;font-size: 10px;&quot;&gt;SMA datalogger&lt;/font&gt;" style="rounded=1;whiteSpace=wrap;html=1;" parent="1" vertex="1">
          <mxGeometry x="886" y="519" width="100" height="20" as="geometry" />
        </mxCell>
        <mxCell id="rswGfNqE7HVyRveE84aS-30" value="&lt;font style=&quot;font-size: 10px;&quot;&gt;SMA datalogger&lt;/font&gt;" style="rounded=1;whiteSpace=wrap;html=1;" parent="1" vertex="1">
          <mxGeometry x="891" y="524" width="100" height="20" as="geometry" />
        </mxCell>
        <mxCell id="rswGfNqE7HVyRveE84aS-32" value="&lt;font style=&quot;font-size: 10px;&quot;&gt;SMA datalogger&lt;/font&gt;" style="rounded=1;whiteSpace=wrap;html=1;" parent="1" vertex="1">
          <mxGeometry x="896" y="529" width="100" height="20" as="geometry" />
        </mxCell>
        <mxCell id="rswGfNqE7HVyRveE84aS-31" value="&lt;font style=&quot;font-size: 10px;&quot;&gt;SMA dataloggers&lt;/font&gt;" style="rounded=1;whiteSpace=wrap;html=1;" parent="1" vertex="1">
          <mxGeometry x="901" y="534" width="100" height="20" as="geometry" />
        </mxCell>
        <mxCell id="rswGfNqE7HVyRveE84aS-33" value="&lt;font style=&quot;font-size: 10px;&quot;&gt;Ewon&lt;/font&gt;" style="rounded=1;whiteSpace=wrap;html=1;" parent="1" vertex="1">
          <mxGeometry x="886" y="609" width="55" height="20" as="geometry" />
        </mxCell>
        <mxCell id="rswGfNqE7HVyRveE84aS-34" value="&lt;font style=&quot;font-size: 10px;&quot;&gt;LOGO&lt;/font&gt;" style="rounded=1;whiteSpace=wrap;html=1;" parent="1" vertex="1">
          <mxGeometry x="961" y="609" width="55" height="20" as="geometry" />
        </mxCell>
        <mxCell id="rswGfNqE7HVyRveE84aS-35" value="" style="endArrow=classic;html=1;rounded=0;exitX=1;exitY=0.5;exitDx=0;exitDy=0;entryX=0;entryY=0.75;entryDx=0;entryDy=0;" parent="1" source="rswGfNqE7HVyRveE84aS-17" target="rswGfNqE7HVyRveE84aS-33" edge="1">
          <mxGeometry width="50" height="50" relative="1" as="geometry">
            <mxPoint x="641" y="484" as="sourcePoint" />
            <mxPoint x="881" y="624" as="targetPoint" />
          </mxGeometry>
        </mxCell>
        <mxCell id="rswGfNqE7HVyRveE84aS-49" value="MQTT" style="edgeLabel;html=1;align=center;verticalAlign=middle;resizable=0;points=[];" parent="rswGfNqE7HVyRveE84aS-35" vertex="1" connectable="0">
          <mxGeometry x="-0.1298" y="-1" relative="1" as="geometry">
            <mxPoint as="offset" />
          </mxGeometry>
        </mxCell>
        <mxCell id="rswGfNqE7HVyRveE84aS-36" value="" style="endArrow=classic;html=1;rounded=0;exitX=1;exitY=0.5;exitDx=0;exitDy=0;entryX=0;entryY=0.5;entryDx=0;entryDy=0;" parent="1" source="rswGfNqE7HVyRveE84aS-33" target="rswGfNqE7HVyRveE84aS-34" edge="1">
          <mxGeometry width="50" height="50" relative="1" as="geometry">
            <mxPoint x="641" y="484" as="sourcePoint" />
            <mxPoint x="691" y="434" as="targetPoint" />
          </mxGeometry>
        </mxCell>
        <mxCell id="rswGfNqE7HVyRveE84aS-37" value="&lt;font style=&quot;font-size: 10px;&quot;&gt;Ewon&lt;/font&gt;" style="rounded=1;whiteSpace=wrap;html=1;" parent="1" vertex="1">
          <mxGeometry x="891" y="614" width="55" height="20" as="geometry" />
        </mxCell>
        <mxCell id="rswGfNqE7HVyRveE84aS-39" value="" style="endArrow=classic;html=1;rounded=0;exitX=1;exitY=0.5;exitDx=0;exitDy=0;entryX=0;entryY=0.5;entryDx=0;entryDy=0;" parent="1" source="rswGfNqE7HVyRveE84aS-37" target="rswGfNqE7HVyRveE84aS-38" edge="1">
          <mxGeometry width="50" height="50" relative="1" as="geometry">
            <mxPoint x="646" y="489" as="sourcePoint" />
            <mxPoint x="696" y="439" as="targetPoint" />
          </mxGeometry>
        </mxCell>
        <mxCell id="rswGfNqE7HVyRveE84aS-40" value="&lt;div&gt;&lt;span style=&quot;font-size: 10px;&quot;&gt;pv_imbalance MQTT&lt;/span&gt;&lt;/div&gt;" style="rounded=1;whiteSpace=wrap;html=1;" parent="1" vertex="1">
          <mxGeometry x="448" y="574" width="160" height="30" as="geometry" />
        </mxCell>
        <mxCell id="rswGfNqE7HVyRveE84aS-41" value="&lt;font style=&quot;font-size: 10px;&quot;&gt;Ewon&lt;/font&gt;" style="rounded=1;whiteSpace=wrap;html=1;" parent="1" vertex="1">
          <mxGeometry x="886" y="579" width="55" height="20" as="geometry" />
        </mxCell>
        <mxCell id="rswGfNqE7HVyRveE84aS-43" value="" style="endArrow=classic;html=1;rounded=0;exitX=1;exitY=0.5;exitDx=0;exitDy=0;entryX=0;entryY=0.75;entryDx=0;entryDy=0;" parent="1" source="rswGfNqE7HVyRveE84aS-40" target="rswGfNqE7HVyRveE84aS-41" edge="1">
          <mxGeometry width="50" height="50" relative="1" as="geometry">
            <mxPoint x="641" y="454" as="sourcePoint" />
            <mxPoint x="881" y="594" as="targetPoint" />
          </mxGeometry>
        </mxCell>
        <mxCell id="rswGfNqE7HVyRveE84aS-48" value="MQTT" style="edgeLabel;html=1;align=center;verticalAlign=middle;resizable=0;points=[];" parent="rswGfNqE7HVyRveE84aS-43" vertex="1" connectable="0">
          <mxGeometry x="-0.1188" y="1" relative="1" as="geometry">
            <mxPoint as="offset" />
          </mxGeometry>
        </mxCell>
        <mxCell id="rswGfNqE7HVyRveE84aS-44" value="" style="endArrow=classic;html=1;rounded=0;exitX=1;exitY=0.5;exitDx=0;exitDy=0;entryX=0;entryY=0.5;entryDx=0;entryDy=0;" parent="1" source="rswGfNqE7HVyRveE84aS-41" target="rswGfNqE7HVyRveE84aS-55" edge="1">
          <mxGeometry width="50" height="50" relative="1" as="geometry">
            <mxPoint x="641" y="454" as="sourcePoint" />
            <mxPoint x="961" y="589" as="targetPoint" />
          </mxGeometry>
        </mxCell>
        <mxCell id="rswGfNqE7HVyRveE84aS-45" value="&lt;font style=&quot;font-size: 10px;&quot;&gt;Ewon&lt;/font&gt;" style="rounded=1;whiteSpace=wrap;html=1;" parent="1" vertex="1">
          <mxGeometry x="891" y="584" width="55" height="20" as="geometry" />
        </mxCell>
        <mxCell id="rswGfNqE7HVyRveE84aS-50" value="&lt;font style=&quot;font-size: 10px;&quot;&gt;EMS&lt;/font&gt;" style="rounded=1;whiteSpace=wrap;html=1;" parent="1" vertex="1">
          <mxGeometry x="1036" y="609" width="55" height="20" as="geometry" />
        </mxCell>
        <mxCell id="rswGfNqE7HVyRveE84aS-51" value="" style="endArrow=classic;html=1;rounded=0;exitX=1;exitY=0.5;exitDx=0;exitDy=0;entryX=0;entryY=0.5;entryDx=0;entryDy=0;" parent="1" source="rswGfNqE7HVyRveE84aS-34" target="rswGfNqE7HVyRveE84aS-50" edge="1">
          <mxGeometry width="50" height="50" relative="1" as="geometry">
            <mxPoint x="1016" y="619" as="sourcePoint" />
            <mxPoint x="766" y="434" as="targetPoint" />
          </mxGeometry>
        </mxCell>
        <mxCell id="rswGfNqE7HVyRveE84aS-52" value="&lt;font style=&quot;font-size: 10px;&quot;&gt;EMS&lt;/font&gt;" style="rounded=1;whiteSpace=wrap;html=1;" parent="1" vertex="1">
          <mxGeometry x="1041" y="614" width="55" height="20" as="geometry" />
        </mxCell>
        <mxCell id="rswGfNqE7HVyRveE84aS-53" value="" style="endArrow=classic;html=1;rounded=0;exitX=1;exitY=0.5;exitDx=0;exitDy=0;entryX=0;entryY=0.5;entryDx=0;entryDy=0;" parent="1" source="rswGfNqE7HVyRveE84aS-38" target="rswGfNqE7HVyRveE84aS-52" edge="1">
          <mxGeometry width="50" height="50" relative="1" as="geometry">
            <mxPoint x="1021" y="624" as="sourcePoint" />
            <mxPoint x="771" y="439" as="targetPoint" />
          </mxGeometry>
        </mxCell>
        <mxCell id="rswGfNqE7HVyRveE84aS-38" value="&lt;font style=&quot;font-size: 10px;&quot;&gt;LOGO&lt;/font&gt;" style="rounded=1;whiteSpace=wrap;html=1;" parent="1" vertex="1">
          <mxGeometry x="966" y="614" width="55" height="20" as="geometry" />
        </mxCell>
        <mxCell id="rswGfNqE7HVyRveE84aS-55" value="&lt;span style=&quot;font-size: 10px;&quot;&gt;SMA inverter manager&lt;/span&gt;" style="rounded=1;whiteSpace=wrap;html=1;" parent="1" vertex="1">
          <mxGeometry x="1036" y="579" width="105" height="20" as="geometry" />
        </mxCell>
        <mxCell id="rswGfNqE7HVyRveE84aS-57" value="&lt;font style=&quot;font-size: 10px;&quot;&gt;SMA inverter manager&lt;/font&gt;" style="rounded=1;whiteSpace=wrap;html=1;" parent="1" vertex="1">
          <mxGeometry x="1041" y="584" width="110" height="20" as="geometry" />
        </mxCell>
        <mxCell id="rswGfNqE7HVyRveE84aS-47" value="" style="endArrow=classic;html=1;rounded=0;exitX=1;exitY=0.5;exitDx=0;exitDy=0;entryX=0;entryY=0.5;entryDx=0;entryDy=0;" parent="1" source="rswGfNqE7HVyRveE84aS-45" target="rswGfNqE7HVyRveE84aS-57" edge="1">
          <mxGeometry width="50" height="50" relative="1" as="geometry">
            <mxPoint x="646" y="459" as="sourcePoint" />
            <mxPoint x="966" y="594" as="targetPoint" />
          </mxGeometry>
        </mxCell>
        <mxCell id="rswGfNqE7HVyRveE84aS-61" value="" style="endArrow=classic;html=1;rounded=0;exitX=1;exitY=0.5;exitDx=0;exitDy=0;entryX=0;entryY=0.5;entryDx=0;entryDy=0;" parent="1" source="rswGfNqE7HVyRveE84aS-24" target="rswGfNqE7HVyRveE84aS-40" edge="1">
          <mxGeometry width="50" height="50" relative="1" as="geometry">
            <mxPoint x="541" y="444" as="sourcePoint" />
            <mxPoint x="591" y="394" as="targetPoint" />
          </mxGeometry>
        </mxCell>
        <mxCell id="rswGfNqE7HVyRveE84aS-62" value="" style="endArrow=classic;html=1;rounded=0;exitX=1;exitY=0.5;exitDx=0;exitDy=0;entryX=0;entryY=0.5;entryDx=0;entryDy=0;" parent="1" source="rswGfNqE7HVyRveE84aS-24" target="rswGfNqE7HVyRveE84aS-17" edge="1">
          <mxGeometry width="50" height="50" relative="1" as="geometry">
            <mxPoint x="541" y="444" as="sourcePoint" />
            <mxPoint x="591" y="394" as="targetPoint" />
          </mxGeometry>
        </mxCell>
        <mxCell id="rswGfNqE7HVyRveE84aS-64" value="&lt;font style=&quot;font-size: 10px;&quot;&gt;db&lt;/font&gt;" style="text;html=1;align=center;verticalAlign=middle;whiteSpace=wrap;rounded=0;" parent="1" vertex="1">
          <mxGeometry x="496.5" y="239" width="73" height="30" as="geometry" />
        </mxCell>
        <mxCell id="rswGfNqE7HVyRveE84aS-68" value="Trevi AWS" style="text;html=1;align=center;verticalAlign=middle;whiteSpace=wrap;rounded=0;fontStyle=1" parent="1" vertex="1">
          <mxGeometry x="241" y="850" width="79" height="30" as="geometry" />
        </mxCell>
        <mxCell id="rswGfNqE7HVyRveE84aS-69" value="&lt;font style=&quot;font-size: 10px;&quot;&gt;&amp;nbsp; &amp;nbsp; &amp;nbsp; &amp;nbsp;Grafana&lt;/font&gt;" style="rounded=1;whiteSpace=wrap;html=1;fillColor=#66FF66;" parent="1" vertex="1">
          <mxGeometry x="684" y="939" width="100" height="30" as="geometry" />
        </mxCell>
        <mxCell id="rswGfNqE7HVyRveE84aS-72" value="" style="endArrow=classic;html=1;rounded=0;entryX=0;entryY=0.5;entryDx=0;entryDy=0;strokeColor=#66FF66;" parent="1" source="rswGfNqE7HVyRveE84aS-152" target="rswGfNqE7HVyRveE84aS-69" edge="1">
          <mxGeometry x="-0.0001" width="50" height="50" relative="1" as="geometry">
            <mxPoint x="651" y="1089" as="sourcePoint" />
            <mxPoint x="919" y="1029" as="targetPoint" />
            <mxPoint as="offset" />
          </mxGeometry>
        </mxCell>
        <mxCell id="rswGfNqE7HVyRveE84aS-74" value="&lt;div&gt;&lt;font style=&quot;font-size: 10px;&quot;&gt;Data visualisation &amp;amp; analyse&lt;/font&gt;&lt;/div&gt;" style="rounded=1;whiteSpace=wrap;html=1;dashed=1;strokeColor=none;" parent="1" vertex="1">
          <mxGeometry x="704" y="919" width="131" height="14" as="geometry" />
        </mxCell>
        <mxCell id="rswGfNqE7HVyRveE84aS-80" value="&lt;font style=&quot;font-size: 10px;&quot;&gt;MQTT broker&lt;/font&gt;" style="rounded=1;whiteSpace=wrap;html=1;fillColor=light-dark(#66ff66, #203a00);strokeColor=#36393d;" parent="1" vertex="1">
          <mxGeometry x="301" y="905" width="70" height="35" as="geometry" />
        </mxCell>
        <mxCell id="rswGfNqE7HVyRveE84aS-84" value="&lt;font style=&quot;font-size: 10px;&quot;&gt;&amp;nbsp;imbalance forecast&lt;/font&gt;" style="rounded=1;whiteSpace=wrap;html=1;fillColor=#66FF66;" parent="1" vertex="1">
          <mxGeometry x="19" y="1449.5" width="100" height="30" as="geometry" />
        </mxCell>
        <mxCell id="rswGfNqE7HVyRveE84aS-87" value="&lt;font style=&quot;font-size: 10px;&quot;&gt;SMA datalogger&lt;/font&gt;" style="rounded=1;whiteSpace=wrap;html=1;fillColor=#66FF66;" parent="1" vertex="1">
          <mxGeometry x="882" y="1303" width="100" height="20" as="geometry" />
        </mxCell>
        <mxCell id="rswGfNqE7HVyRveE84aS-89" value="&lt;font style=&quot;font-size: 10px;&quot;&gt;SMA datalogger&lt;/font&gt;" style="rounded=1;whiteSpace=wrap;html=1;fillColor=#66FF66;" parent="1" vertex="1">
          <mxGeometry x="887" y="1308" width="100" height="20" as="geometry" />
        </mxCell>
        <mxCell id="rswGfNqE7HVyRveE84aS-90" value="&lt;font style=&quot;font-size: 10px;&quot;&gt;SMA datalogger&lt;/font&gt;" style="rounded=1;whiteSpace=wrap;html=1;fillColor=#66FF66;" parent="1" vertex="1">
          <mxGeometry x="892" y="1313" width="100" height="20" as="geometry" />
        </mxCell>
        <mxCell id="rswGfNqE7HVyRveE84aS-91" value="&lt;font style=&quot;font-size: 10px;&quot;&gt;SMA datalogger&lt;/font&gt;" style="rounded=1;whiteSpace=wrap;html=1;fillColor=#66FF66;" parent="1" vertex="1">
          <mxGeometry x="897" y="1318" width="100" height="20" as="geometry" />
        </mxCell>
        <mxCell id="rswGfNqE7HVyRveE84aS-92" value="&lt;font style=&quot;font-size: 10px;&quot;&gt;SMA dataloggers&lt;/font&gt;" style="rounded=1;whiteSpace=wrap;html=1;fillColor=#66FF66;" parent="1" vertex="1">
          <mxGeometry x="902" y="1323" width="100" height="20" as="geometry" />
        </mxCell>
        <mxCell id="rswGfNqE7HVyRveE84aS-120" value="&lt;span style=&quot;font-size: 10px;&quot;&gt;timeserie db&amp;nbsp;&lt;/span&gt;&lt;div&gt;&lt;span style=&quot;font-size: 10px;&quot;&gt;RT &amp;amp; historical&lt;/span&gt;&lt;/div&gt;" style="text;html=1;align=center;verticalAlign=middle;whiteSpace=wrap;rounded=0;" parent="1" vertex="1">
          <mxGeometry x="490" y="878" width="73" height="30" as="geometry" />
        </mxCell>
        <mxCell id="rswGfNqE7HVyRveE84aS-78" value="&lt;div&gt;&lt;span style=&quot;font-size: 10px;&quot;&gt;OUT: PV SMA API&lt;/span&gt;&lt;/div&gt;" style="rounded=1;whiteSpace=wrap;html=1;fillColor=#66FF66;" parent="1" vertex="1">
          <mxGeometry x="651" y="1310.5" width="160" height="30" as="geometry" />
        </mxCell>
        <mxCell id="rswGfNqE7HVyRveE84aS-85" value="" style="endArrow=classic;html=1;rounded=0;exitX=1;exitY=0.25;exitDx=0;exitDy=0;entryX=0;entryY=0.25;entryDx=0;entryDy=0;fillColor=#66FF66;strokeColor=#66FF66;" parent="1" source="rswGfNqE7HVyRveE84aS-84" target="rswGfNqE7HVyRveE84aS-82" edge="1">
          <mxGeometry width="50" height="50" relative="1" as="geometry">
            <mxPoint x="559" y="1447" as="sourcePoint" />
            <mxPoint x="609" y="1397" as="targetPoint" />
          </mxGeometry>
        </mxCell>
        <mxCell id="rswGfNqE7HVyRveE84aS-88" value="API" style="endArrow=classic;html=1;rounded=0;exitX=1;exitY=0.25;exitDx=0;exitDy=0;entryX=0;entryY=0.75;entryDx=0;entryDy=0;strokeColor=#66FF66;" parent="1" source="rswGfNqE7HVyRveE84aS-78" target="rswGfNqE7HVyRveE84aS-87" edge="1">
          <mxGeometry x="0.0986" width="50" height="50" relative="1" as="geometry">
            <mxPoint x="552" y="1303" as="sourcePoint" />
            <mxPoint x="602" y="1253" as="targetPoint" />
            <mxPoint as="offset" />
          </mxGeometry>
        </mxCell>
        <mxCell id="rswGfNqE7HVyRveE84aS-82" value="&lt;span style=&quot;font-size: 10px;&quot;&gt;IN:&amp;nbsp;&lt;/span&gt;&lt;span style=&quot;font-size: 10px; background-color: initial;&quot;&gt;Onbalans forecast&lt;/span&gt;" style="rounded=1;whiteSpace=wrap;html=1;fillColor=#66FF66;" parent="1" vertex="1">
          <mxGeometry x="221" y="1449.5" width="160" height="30" as="geometry" />
        </mxCell>
        <mxCell id="rswGfNqE7HVyRveE84aS-123" value="&lt;div&gt;&lt;span style=&quot;font-size: 10px;&quot;&gt;EMS&lt;/span&gt;&lt;/div&gt;" style="rounded=1;whiteSpace=wrap;html=1;fillColor=#66FF66;strokeColor=#FF0000;strokeWidth=4;dashed=1;dashPattern=1 1;" parent="1" vertex="1">
          <mxGeometry x="439" y="1449.5" width="160" height="30" as="geometry" />
        </mxCell>
        <mxCell id="rswGfNqE7HVyRveE84aS-125" value="IN imbalance" style="text;html=1;align=center;verticalAlign=middle;whiteSpace=wrap;rounded=0;fontStyle=1" parent="1" vertex="1">
          <mxGeometry x="262" y="1501" width="90" height="30" as="geometry" />
        </mxCell>
        <mxCell id="rswGfNqE7HVyRveE84aS-152" value="&lt;div&gt;Amazon&lt;/div&gt;&lt;div&gt;Timestream&lt;/div&gt;InfluxDB" style="shape=cylinder3;whiteSpace=wrap;html=1;boundedLbl=1;backgroundOutline=1;size=15;strokeColor=#000000;fillColor=#66FF66;" parent="1" vertex="1">
          <mxGeometry x="493" y="910" width="67" height="89" as="geometry" />
        </mxCell>
        <mxCell id="rswGfNqE7HVyRveE84aS-206" value="&lt;p style=&quot;margin: 0in; font-size: 7.5pt;&quot;&gt;&lt;span style=&quot;background-image: initial; background-position: initial; background-size: initial; background-repeat: initial; background-attachment: initial; background-origin: initial; background-clip: initial;&quot;&gt;Status monitoring/alerting&lt;/span&gt;&lt;/p&gt;" style="rounded=1;whiteSpace=wrap;html=1;dashed=1;strokeColor=none;" parent="1" vertex="1">
          <mxGeometry x="703" y="908" width="131" height="11" as="geometry" />
        </mxCell>
        <mxCell id="rswGfNqE7HVyRveE84aS-212" value="&lt;b&gt;&lt;font style=&quot;font-size: 20px;&quot;&gt;&lt;u style=&quot;&quot;&gt;As build EC2&lt;/u&gt;&lt;/font&gt;&lt;/b&gt;" style="text;html=1;align=left;verticalAlign=middle;whiteSpace=wrap;rounded=0;" parent="1" vertex="1">
          <mxGeometry x="6.5" width="150" height="50" as="geometry" />
        </mxCell>
        <mxCell id="rswGfNqE7HVyRveE84aS-213" value="&lt;b&gt;&lt;font style=&quot;font-size: 20px;&quot;&gt;&lt;u style=&quot;&quot;&gt;As build container&lt;/u&gt;&lt;/font&gt;&lt;/b&gt;" style="text;html=1;align=left;verticalAlign=middle;whiteSpace=wrap;rounded=0;" parent="1" vertex="1">
          <mxGeometry x="6.5" y="839" width="193.5" height="50" as="geometry" />
        </mxCell>
        <mxCell id="VrljPDt0W4JhfJKuqfeu-1" value="&lt;font style=&quot;font-size: 10px;&quot;&gt;Elia onbalans forecast next 15m&lt;/font&gt;" style="rounded=1;whiteSpace=wrap;html=1;" parent="1" vertex="1">
          <mxGeometry x="18" y="504" width="100" height="30" as="geometry" />
        </mxCell>
        <mxCell id="VrljPDt0W4JhfJKuqfeu-2" value="" style="endArrow=classic;html=1;rounded=0;entryX=0.145;entryY=1;entryDx=0;entryDy=-4.35;entryPerimeter=0;exitX=1;exitY=0.25;exitDx=0;exitDy=0;" parent="1" source="rswGfNqE7HVyRveE84aS-21" target="KNUL4cX1r_U77rqQdTEB-1" edge="1">
          <mxGeometry width="50" height="50" relative="1" as="geometry">
            <mxPoint x="460" y="560" as="sourcePoint" />
            <mxPoint x="510" y="510" as="targetPoint" />
          </mxGeometry>
        </mxCell>
        <mxCell id="VrljPDt0W4JhfJKuqfeu-3" value="" style="endArrow=classic;html=1;rounded=0;entryX=0.145;entryY=1;entryDx=0;entryDy=-4.35;entryPerimeter=0;exitX=1;exitY=0;exitDx=0;exitDy=0;" parent="1" source="rswGfNqE7HVyRveE84aS-24" target="KNUL4cX1r_U77rqQdTEB-1" edge="1">
          <mxGeometry width="50" height="50" relative="1" as="geometry">
            <mxPoint x="460" y="560" as="sourcePoint" />
            <mxPoint x="510" y="510" as="targetPoint" />
          </mxGeometry>
        </mxCell>
        <mxCell id="bmtWLTp9S_v2I6B9r55R-2" value="&lt;font style=&quot;font-size: 10px;&quot;&gt;Lynx / Cogenius&lt;/font&gt;" style="rounded=1;whiteSpace=wrap;html=1;" parent="1" vertex="1">
          <mxGeometry x="948" y="204" width="82" height="35" as="geometry" />
        </mxCell>
        <mxCell id="bmtWLTp9S_v2I6B9r55R-4" value="manuele export" style="endArrow=classic;html=1;rounded=0;exitX=0.25;exitY=1;exitDx=0;exitDy=0;entryX=0.212;entryY=-0.056;entryDx=0;entryDy=0;entryPerimeter=0;" parent="1" source="bmtWLTp9S_v2I6B9r55R-2" target="KNUL4cX1r_U77rqQdTEB-7" edge="1">
          <mxGeometry x="-0.0001" width="50" height="50" relative="1" as="geometry">
            <mxPoint x="750" y="244" as="sourcePoint" />
            <mxPoint x="1185" y="239" as="targetPoint" />
            <mxPoint as="offset" />
          </mxGeometry>
        </mxCell>
        <mxCell id="bmtWLTp9S_v2I6B9r55R-6" value="&lt;div&gt;&lt;span style=&quot;font-size: 10px;&quot;&gt;Sterckx_imbalance MQTT&lt;/span&gt;&lt;/div&gt;" style="rounded=1;whiteSpace=wrap;html=1;" parent="1" vertex="1">
          <mxGeometry x="448" y="634" width="160" height="30" as="geometry" />
        </mxCell>
        <mxCell id="bmtWLTp9S_v2I6B9r55R-7" value="" style="endArrow=classic;html=1;rounded=0;exitX=1;exitY=0.5;exitDx=0;exitDy=0;entryX=0;entryY=0.5;entryDx=0;entryDy=0;" parent="1" source="rswGfNqE7HVyRveE84aS-24" target="bmtWLTp9S_v2I6B9r55R-6" edge="1">
          <mxGeometry width="50" height="50" relative="1" as="geometry">
            <mxPoint x="128" y="569" as="sourcePoint" />
            <mxPoint x="458" y="629" as="targetPoint" />
          </mxGeometry>
        </mxCell>
        <mxCell id="bmtWLTp9S_v2I6B9r55R-8" value="" style="endArrow=classic;html=1;rounded=0;exitX=1;exitY=0.5;exitDx=0;exitDy=0;entryX=0;entryY=0.5;entryDx=0;entryDy=0;" parent="1" source="bmtWLTp9S_v2I6B9r55R-6" target="bmtWLTp9S_v2I6B9r55R-10" edge="1">
          <mxGeometry width="50" height="50" relative="1" as="geometry">
            <mxPoint x="618" y="629" as="sourcePoint" />
            <mxPoint x="896" y="634" as="targetPoint" />
          </mxGeometry>
        </mxCell>
        <mxCell id="bmtWLTp9S_v2I6B9r55R-9" value="MQTT" style="edgeLabel;html=1;align=center;verticalAlign=middle;resizable=0;points=[];" parent="bmtWLTp9S_v2I6B9r55R-8" vertex="1" connectable="0">
          <mxGeometry x="-0.1298" y="-1" relative="1" as="geometry">
            <mxPoint as="offset" />
          </mxGeometry>
        </mxCell>
        <mxCell id="bmtWLTp9S_v2I6B9r55R-10" value="&lt;font style=&quot;font-size: 10px;&quot;&gt;Ewon&lt;/font&gt;" style="rounded=1;whiteSpace=wrap;html=1;" parent="1" vertex="1">
          <mxGeometry x="887" y="644" width="55" height="20" as="geometry" />
        </mxCell>
        <mxCell id="bmtWLTp9S_v2I6B9r55R-11" value="&lt;font style=&quot;font-size: 10px;&quot;&gt;Phoenix Contact MINT&lt;/font&gt;" style="rounded=1;whiteSpace=wrap;html=1;" parent="1" vertex="1">
          <mxGeometry x="1037" y="641" width="83" height="26" as="geometry" />
        </mxCell>
        <mxCell id="bmtWLTp9S_v2I6B9r55R-12" value="" style="endArrow=classic;html=1;rounded=0;exitX=1;exitY=0.5;exitDx=0;exitDy=0;entryX=0;entryY=0.5;entryDx=0;entryDy=0;" parent="1" source="bmtWLTp9S_v2I6B9r55R-10" target="bmtWLTp9S_v2I6B9r55R-11" edge="1">
          <mxGeometry width="50" height="50" relative="1" as="geometry">
            <mxPoint x="642" y="519" as="sourcePoint" />
            <mxPoint x="962" y="654" as="targetPoint" />
          </mxGeometry>
        </mxCell>
        <mxCell id="bmtWLTp9S_v2I6B9r55R-16" value="&lt;p style=&quot;margin: 0in; font-size: 7.5pt;&quot;&gt;&lt;span style=&quot;background-image: initial; background-position: initial; background-size: initial; background-repeat: initial; background-attachment: initial; background-origin: initial; background-clip: initial;&quot;&gt;reporting&lt;/span&gt;&lt;/p&gt;" style="rounded=1;whiteSpace=wrap;html=1;dashed=1;strokeColor=none;" parent="1" vertex="1">
          <mxGeometry x="704" y="899" width="131" height="7" as="geometry" />
        </mxCell>
        <mxCell id="BSSiuGZMnpmqFMswEzqa-1" value="&lt;font style=&quot;font-size: 10px;&quot;&gt;S3 bucket with config files&lt;/font&gt;" style="rounded=1;whiteSpace=wrap;html=1;fillColor=#66FF66;" parent="1" vertex="1">
          <mxGeometry x="262" y="959" width="160" height="30" as="geometry" />
        </mxCell>
        <mxCell id="BSSiuGZMnpmqFMswEzqa-4" value="" style="endArrow=classic;html=1;rounded=0;exitX=0;exitY=0;exitDx=0;exitDy=0;strokeColor=#66FF66;entryX=1;entryY=1;entryDx=0;entryDy=0;" parent="1" source="rswGfNqE7HVyRveE84aS-78" target="rswGfNqE7HVyRveE84aS-152" edge="1">
          <mxGeometry width="50" height="50" relative="1" as="geometry">
            <mxPoint x="529" y="1436" as="sourcePoint" />
            <mxPoint x="534" y="1209" as="targetPoint" />
          </mxGeometry>
        </mxCell>
        <mxCell id="r9gsJSX6RoqanbE3VTS2-18" value="process" style="text;html=1;align=center;verticalAlign=middle;whiteSpace=wrap;rounded=0;fontStyle=1" parent="1" vertex="1">
          <mxGeometry x="464" y="1501" width="110" height="30" as="geometry" />
        </mxCell>
        <mxCell id="r9gsJSX6RoqanbE3VTS2-20" value="OUT" style="text;html=1;align=center;verticalAlign=middle;whiteSpace=wrap;rounded=0;fontStyle=1" parent="1" vertex="1">
          <mxGeometry x="684" y="1501" width="110" height="30" as="geometry" />
        </mxCell>
        <mxCell id="r9gsJSX6RoqanbE3VTS2-22" value="Elastic Container Service (ECS)&amp;nbsp;&lt;div&gt;AWS Fargate&lt;/div&gt;" style="text;html=1;align=left;verticalAlign=middle;whiteSpace=wrap;rounded=0;fontStyle=1" parent="1" vertex="1">
          <mxGeometry x="612" y="1028" width="254" height="30" as="geometry" />
        </mxCell>
        <mxCell id="rswGfNqE7HVyRveE84aS-124" value="" style="endArrow=classic;html=1;rounded=0;exitX=1;exitY=0.5;exitDx=0;exitDy=0;entryX=0;entryY=0.5;entryDx=0;entryDy=0;strokeColor=#FF0000;strokeWidth=3;dashed=1;dashPattern=1 1;" parent="1" source="rswGfNqE7HVyRveE84aS-82" target="rswGfNqE7HVyRveE84aS-123" edge="1">
          <mxGeometry width="50" height="50" relative="1" as="geometry">
            <mxPoint x="381" y="1462" as="sourcePoint" />
            <mxPoint x="651" y="1465" as="targetPoint" />
          </mxGeometry>
        </mxCell>
        <mxCell id="rswGfNqE7HVyRveE84aS-83" value="" style="endArrow=classic;html=1;rounded=0;exitX=1;exitY=0;exitDx=0;exitDy=0;entryX=0.25;entryY=1;entryDx=0;entryDy=0;strokeColor=#66FF66;" parent="1" source="rswGfNqE7HVyRveE84aS-82" target="rswGfNqE7HVyRveE84aS-152" edge="1">
          <mxGeometry width="50" height="50" relative="1" as="geometry">
            <mxPoint x="409" y="1344" as="sourcePoint" />
            <mxPoint x="497.70000000000005" y="1199.6499999999999" as="targetPoint" />
          </mxGeometry>
        </mxCell>
        <mxCell id="r9gsJSX6RoqanbE3VTS2-33" value="" style="sketch=0;outlineConnect=0;fontColor=#232F3E;gradientColor=none;strokeColor=#ffffff;fillColor=#232F3E;dashed=0;verticalLabelPosition=middle;verticalAlign=bottom;align=center;html=1;whiteSpace=wrap;fontSize=10;fontStyle=1;spacing=3;shape=mxgraph.aws4.productIcon;prIcon=mxgraph.aws4.fargate;" parent="1" vertex="1">
          <mxGeometry x="768" y="1045" width="30" height="50" as="geometry" />
        </mxCell>
        <mxCell id="r9gsJSX6RoqanbE3VTS2-34" value="" style="image;sketch=0;aspect=fixed;html=1;points=[];align=center;fontSize=12;image=img/lib/mscae/Docker.svg;" parent="1" vertex="1">
          <mxGeometry x="217" y="1501" width="32.98" height="27.04" as="geometry" />
        </mxCell>
        <mxCell id="r9gsJSX6RoqanbE3VTS2-37" value="" style="image;aspect=fixed;html=1;points=[];align=center;fontSize=12;image=img/lib/azure2/other/Grafana.svg;" parent="1" vertex="1">
          <mxGeometry x="688.17" y="942.6" width="29.36" height="22.8" as="geometry" />
        </mxCell>
        <mxCell id="r9gsJSX6RoqanbE3VTS2-38" value="" style="sketch=0;outlineConnect=0;fontColor=#232F3E;gradientColor=none;fillColor=#7AA116;strokeColor=none;dashed=0;verticalLabelPosition=bottom;verticalAlign=top;align=center;html=1;fontSize=12;fontStyle=0;aspect=fixed;pointerEvents=1;shape=mxgraph.aws4.bucket;" parent="1" vertex="1">
          <mxGeometry x="401" y="963.4399999999999" width="20" height="20.8" as="geometry" />
        </mxCell>
        <mxCell id="r9gsJSX6RoqanbE3VTS2-39" value="" style="outlineConnect=0;dashed=0;verticalLabelPosition=bottom;verticalAlign=top;align=center;html=1;shape=mxgraph.aws3.s3;fillColor=#E05243;gradientColor=none;" parent="1" vertex="1">
          <mxGeometry x="264.17" y="963.44" width="16.5" height="21" as="geometry" />
        </mxCell>
        <mxCell id="r9gsJSX6RoqanbE3VTS2-42" value="" style="image;sketch=0;aspect=fixed;html=1;points=[];align=center;fontSize=12;image=img/lib/mscae/Docker.svg;" parent="1" vertex="1">
          <mxGeometry x="439" y="1501" width="32.98" height="27.04" as="geometry" />
        </mxCell>
        <mxCell id="r9gsJSX6RoqanbE3VTS2-43" value="" style="image;sketch=0;aspect=fixed;html=1;points=[];align=center;fontSize=12;image=img/lib/mscae/Docker.svg;" parent="1" vertex="1">
          <mxGeometry x="660" y="1501" width="32.98" height="27.04" as="geometry" />
        </mxCell>
        <mxCell id="r9gsJSX6RoqanbE3VTS2-51" value="" style="ellipse;whiteSpace=wrap;html=1;fillColor=#FFF2CC;strokeColor=none;" parent="1" vertex="1">
          <mxGeometry x="328" y="1540" width="170" height="72" as="geometry" />
        </mxCell>
        <mxCell id="r9gsJSX6RoqanbE3VTS2-44" value="SNS" style="sketch=0;points=[[0,0,0],[0.25,0,0],[0.5,0,0],[0.75,0,0],[1,0,0],[0,1,0],[0.25,1,0],[0.5,1,0],[0.75,1,0],[1,1,0],[0,0.25,0],[0,0.5,0],[0,0.75,0],[1,0.25,0],[1,0.5,0],[1,0.75,0]];outlineConnect=0;fontColor=#232F3E;fillColor=#E7157B;strokeColor=#ffffff;dashed=0;verticalLabelPosition=bottom;verticalAlign=top;align=center;html=1;fontSize=12;fontStyle=0;aspect=fixed;shape=mxgraph.aws4.resourceIcon;resIcon=mxgraph.aws4.sns;" parent="1" vertex="1">
          <mxGeometry x="370" y="1552" width="28.5" height="28.5" as="geometry" />
        </mxCell>
        <mxCell id="r9gsJSX6RoqanbE3VTS2-45" value="SQS" style="sketch=0;points=[[0,0,0],[0.25,0,0],[0.5,0,0],[0.75,0,0],[1,0,0],[0,1,0],[0.25,1,0],[0.5,1,0],[0.75,1,0],[1,1,0],[0,0.25,0],[0,0.5,0],[0,0.75,0],[1,0.25,0],[1,0.5,0],[1,0.75,0]];outlineConnect=0;fontColor=#232F3E;fillColor=#E7157B;strokeColor=#ffffff;dashed=0;verticalLabelPosition=bottom;verticalAlign=top;align=center;html=1;fontSize=12;fontStyle=0;aspect=fixed;shape=mxgraph.aws4.resourceIcon;resIcon=mxgraph.aws4.sqs;" parent="1" vertex="1">
          <mxGeometry x="428" y="1552" width="28" height="28" as="geometry" />
        </mxCell>
        <mxCell id="r9gsJSX6RoqanbE3VTS2-46" value="" style="endArrow=classic;html=1;rounded=0;strokeColor=#000000;strokeWidth=1;" parent="1" edge="1">
          <mxGeometry width="50" height="50" relative="1" as="geometry">
            <mxPoint x="340.5" y="1567.66" as="sourcePoint" />
            <mxPoint x="370.5" y="1567.66" as="targetPoint" />
          </mxGeometry>
        </mxCell>
        <mxCell id="r9gsJSX6RoqanbE3VTS2-47" value="" style="endArrow=classic;html=1;rounded=0;strokeColor=#000000;strokeWidth=1;" parent="1" edge="1">
          <mxGeometry width="50" height="50" relative="1" as="geometry">
            <mxPoint x="398.5" y="1567.66" as="sourcePoint" />
            <mxPoint x="428.5" y="1567.66" as="targetPoint" />
          </mxGeometry>
        </mxCell>
        <mxCell id="r9gsJSX6RoqanbE3VTS2-49" value="" style="endArrow=classic;html=1;rounded=0;strokeColor=#000000;strokeWidth=1;" parent="1" edge="1">
          <mxGeometry width="50" height="50" relative="1" as="geometry">
            <mxPoint x="456" y="1567.66" as="sourcePoint" />
            <mxPoint x="486" y="1567.66" as="targetPoint" />
          </mxGeometry>
        </mxCell>
        <mxCell id="r9gsJSX6RoqanbE3VTS2-52" value="" style="ellipse;whiteSpace=wrap;html=1;fillColor=#FFF2CC;strokeColor=none;rotation=-90;opacity=80;" parent="1" vertex="1">
          <mxGeometry x="555.48" y="1418.25" width="137.25" height="27.5" as="geometry" />
        </mxCell>
        <mxCell id="rswGfNqE7HVyRveE84aS-86" value="" style="endArrow=classic;html=1;rounded=0;exitX=1;exitY=0.5;exitDx=0;exitDy=0;entryX=0;entryY=0.5;entryDx=0;entryDy=0;strokeColor=#FF0000;strokeWidth=3;dashed=1;dashPattern=1 1;" parent="1" source="rswGfNqE7HVyRveE84aS-123" target="rswGfNqE7HVyRveE84aS-78" edge="1">
          <mxGeometry width="50" height="50" relative="1" as="geometry">
            <mxPoint x="559" y="1447" as="sourcePoint" />
            <mxPoint x="609" y="1397" as="targetPoint" />
          </mxGeometry>
        </mxCell>
        <mxCell id="IOpTdZNfMsy9UCbYXnR_-1" value="" style="sketch=0;outlineConnect=0;fontColor=#232F3E;gradientColor=none;strokeColor=#ffffff;fillColor=#232F3E;dashed=0;verticalLabelPosition=middle;verticalAlign=bottom;align=center;html=1;whiteSpace=wrap;fontSize=10;fontStyle=1;spacing=3;shape=mxgraph.aws4.productIcon;prIcon=mxgraph.aws4.ecs;" parent="1" vertex="1">
          <mxGeometry x="728.5" y="1045" width="30" height="40" as="geometry" />
        </mxCell>
        <mxCell id="rswGfNqE7HVyRveE84aS-207" value="" style="endArrow=classic;html=1;rounded=0;entryX=0.5;entryY=1;entryDx=0;entryDy=0;exitX=0.897;exitY=-0.004;exitDx=0;exitDy=0;strokeColor=#66FF66;exitPerimeter=0;" parent="1" source="rswGfNqE7HVyRveE84aS-123" target="rswGfNqE7HVyRveE84aS-152" edge="1">
          <mxGeometry width="50" height="50" relative="1" as="geometry">
            <mxPoint x="70" y="1370" as="sourcePoint" />
            <mxPoint x="120" y="1320" as="targetPoint" />
          </mxGeometry>
        </mxCell>
        <mxCell id="IOpTdZNfMsy9UCbYXnR_-5" value="" style="rounded=1;whiteSpace=wrap;html=1;" parent="1" vertex="1">
          <mxGeometry x="210.75" y="2270" width="429.25" height="83.5" as="geometry" />
        </mxCell>
        <mxCell id="IOpTdZNfMsy9UCbYXnR_-7" value="" style="rounded=1;whiteSpace=wrap;html=1;" parent="1" vertex="1">
          <mxGeometry x="635.75" y="2069" width="192" height="284.5" as="geometry" />
        </mxCell>
        <mxCell id="IOpTdZNfMsy9UCbYXnR_-9" value="Trevi AWS" style="text;html=1;align=center;verticalAlign=middle;whiteSpace=wrap;rounded=0;fontStyle=1" parent="1" vertex="1">
          <mxGeometry x="171.73000000000002" y="1675" width="79" height="30" as="geometry" />
        </mxCell>
        <mxCell id="IOpTdZNfMsy9UCbYXnR_-10" value="&lt;font style=&quot;font-size: 10px;&quot;&gt;&amp;nbsp; &amp;nbsp; &amp;nbsp; &amp;nbsp;Grafana&lt;/font&gt;" style="rounded=1;whiteSpace=wrap;html=1;fillColor=#66FF66;" parent="1" vertex="1">
          <mxGeometry x="684.75" y="1751" width="100" height="30" as="geometry" />
        </mxCell>
        <mxCell id="IOpTdZNfMsy9UCbYXnR_-12" value="" style="endArrow=classic;html=1;rounded=0;entryX=0;entryY=0.5;entryDx=0;entryDy=0;strokeColor=#66FF66;" parent="1" source="IOpTdZNfMsy9UCbYXnR_-65" target="IOpTdZNfMsy9UCbYXnR_-10" edge="1">
          <mxGeometry x="-0.0001" width="50" height="50" relative="1" as="geometry">
            <mxPoint x="651.75" y="1901" as="sourcePoint" />
            <mxPoint x="919.75" y="1841" as="targetPoint" />
            <mxPoint as="offset" />
          </mxGeometry>
        </mxCell>
        <mxCell id="IOpTdZNfMsy9UCbYXnR_-14" value="&lt;div&gt;&lt;font style=&quot;font-size: 10px;&quot;&gt;Data visualisation &amp;amp; analyse&lt;/font&gt;&lt;/div&gt;" style="rounded=1;whiteSpace=wrap;html=1;dashed=1;strokeColor=none;" parent="1" vertex="1">
          <mxGeometry x="704.75" y="1731" width="131" height="14" as="geometry" />
        </mxCell>
        <mxCell id="IOpTdZNfMsy9UCbYXnR_-15" value="&lt;font style=&quot;font-size: 10px;&quot;&gt;MQTT broker&lt;/font&gt;" style="rounded=1;whiteSpace=wrap;html=1;fillColor=light-dark(#66ff66, #203a00);strokeColor=#36393d;" parent="1" vertex="1">
          <mxGeometry x="301.75" y="1717" width="70" height="35" as="geometry" />
        </mxCell>
        <mxCell id="IOpTdZNfMsy9UCbYXnR_-16" value="&lt;font style=&quot;font-size: 10px;&quot;&gt;&amp;nbsp;imbalance forecast&lt;/font&gt;" style="rounded=1;whiteSpace=wrap;html=1;fillColor=#66FF66;" parent="1" vertex="1">
          <mxGeometry x="19.75" y="2282.5" width="100" height="30" as="geometry" />
        </mxCell>
        <mxCell id="IOpTdZNfMsy9UCbYXnR_-17" value="&lt;font style=&quot;font-size: 10px;&quot;&gt;SMA datalogger&lt;/font&gt;" style="rounded=1;whiteSpace=wrap;html=1;fillColor=#66FF66;" parent="1" vertex="1">
          <mxGeometry x="882.75" y="2128" width="100" height="20" as="geometry" />
        </mxCell>
        <mxCell id="IOpTdZNfMsy9UCbYXnR_-18" value="&lt;font style=&quot;font-size: 10px;&quot;&gt;SMA datalogger&lt;/font&gt;" style="rounded=1;whiteSpace=wrap;html=1;fillColor=#66FF66;" parent="1" vertex="1">
          <mxGeometry x="887.75" y="2133" width="100" height="20" as="geometry" />
        </mxCell>
        <mxCell id="IOpTdZNfMsy9UCbYXnR_-19" value="&lt;font style=&quot;font-size: 10px;&quot;&gt;SMA datalogger&lt;/font&gt;" style="rounded=1;whiteSpace=wrap;html=1;fillColor=#66FF66;" parent="1" vertex="1">
          <mxGeometry x="892.75" y="2138" width="100" height="20" as="geometry" />
        </mxCell>
        <mxCell id="IOpTdZNfMsy9UCbYXnR_-20" value="&lt;font style=&quot;font-size: 10px;&quot;&gt;SMA datalogger&lt;/font&gt;" style="rounded=1;whiteSpace=wrap;html=1;fillColor=#66FF66;" parent="1" vertex="1">
          <mxGeometry x="897.75" y="2143" width="100" height="20" as="geometry" />
        </mxCell>
        <mxCell id="IOpTdZNfMsy9UCbYXnR_-21" value="&lt;font style=&quot;font-size: 10px;&quot;&gt;SMA dataloggers&lt;/font&gt;" style="rounded=1;whiteSpace=wrap;html=1;fillColor=#66FF66;" parent="1" vertex="1">
          <mxGeometry x="902.75" y="2148" width="100" height="20" as="geometry" />
        </mxCell>
        <mxCell id="IOpTdZNfMsy9UCbYXnR_-22" value="&lt;font style=&quot;font-size: 10px;&quot;&gt;Ewon&lt;/font&gt;" style="rounded=1;whiteSpace=wrap;html=1;" parent="1" vertex="1">
          <mxGeometry x="887.75" y="2205" width="55" height="20" as="geometry" />
        </mxCell>
        <mxCell id="IOpTdZNfMsy9UCbYXnR_-23" value="&lt;font style=&quot;font-size: 10px;&quot;&gt;LOGO&lt;/font&gt;" style="rounded=1;whiteSpace=wrap;html=1;" parent="1" vertex="1">
          <mxGeometry x="962.75" y="2205" width="55" height="20" as="geometry" />
        </mxCell>
        <mxCell id="IOpTdZNfMsy9UCbYXnR_-24" value="" style="endArrow=classic;html=1;rounded=0;exitX=1;exitY=0.5;exitDx=0;exitDy=0;entryX=0;entryY=0.5;entryDx=0;entryDy=0;" parent="1" source="IOpTdZNfMsy9UCbYXnR_-22" target="IOpTdZNfMsy9UCbYXnR_-23" edge="1">
          <mxGeometry width="50" height="50" relative="1" as="geometry">
            <mxPoint x="642.75" y="2080" as="sourcePoint" />
            <mxPoint x="692.75" y="2030" as="targetPoint" />
          </mxGeometry>
        </mxCell>
        <mxCell id="IOpTdZNfMsy9UCbYXnR_-25" value="&lt;font style=&quot;font-size: 10px;&quot;&gt;Ewon&lt;/font&gt;" style="rounded=1;whiteSpace=wrap;html=1;" parent="1" vertex="1">
          <mxGeometry x="892.75" y="2210" width="55" height="20" as="geometry" />
        </mxCell>
        <mxCell id="IOpTdZNfMsy9UCbYXnR_-26" value="" style="endArrow=classic;html=1;rounded=0;exitX=1;exitY=0.5;exitDx=0;exitDy=0;entryX=0;entryY=0.5;entryDx=0;entryDy=0;" parent="1" source="IOpTdZNfMsy9UCbYXnR_-25" target="IOpTdZNfMsy9UCbYXnR_-34" edge="1">
          <mxGeometry width="50" height="50" relative="1" as="geometry">
            <mxPoint x="647.75" y="2085" as="sourcePoint" />
            <mxPoint x="697.75" y="2035" as="targetPoint" />
          </mxGeometry>
        </mxCell>
        <mxCell id="IOpTdZNfMsy9UCbYXnR_-27" value="&lt;font style=&quot;font-size: 10px;&quot;&gt;Ewon&lt;/font&gt;" style="rounded=1;whiteSpace=wrap;html=1;" parent="1" vertex="1">
          <mxGeometry x="887.75" y="2175" width="55" height="20" as="geometry" />
        </mxCell>
        <mxCell id="IOpTdZNfMsy9UCbYXnR_-28" value="" style="endArrow=classic;html=1;rounded=0;exitX=1;exitY=0.5;exitDx=0;exitDy=0;entryX=0;entryY=0.5;entryDx=0;entryDy=0;" parent="1" source="IOpTdZNfMsy9UCbYXnR_-27" target="IOpTdZNfMsy9UCbYXnR_-35" edge="1">
          <mxGeometry width="50" height="50" relative="1" as="geometry">
            <mxPoint x="642.75" y="2050" as="sourcePoint" />
            <mxPoint x="962.75" y="2185" as="targetPoint" />
          </mxGeometry>
        </mxCell>
        <mxCell id="IOpTdZNfMsy9UCbYXnR_-29" value="&lt;font style=&quot;font-size: 10px;&quot;&gt;Ewon&lt;/font&gt;" style="rounded=1;whiteSpace=wrap;html=1;" parent="1" vertex="1">
          <mxGeometry x="892.75" y="2180" width="55" height="20" as="geometry" />
        </mxCell>
        <mxCell id="IOpTdZNfMsy9UCbYXnR_-30" value="&lt;font style=&quot;font-size: 10px;&quot;&gt;EMS&lt;/font&gt;" style="rounded=1;whiteSpace=wrap;html=1;" parent="1" vertex="1">
          <mxGeometry x="1037.75" y="2205" width="55" height="20" as="geometry" />
        </mxCell>
        <mxCell id="IOpTdZNfMsy9UCbYXnR_-31" value="" style="endArrow=classic;html=1;rounded=0;exitX=1;exitY=0.5;exitDx=0;exitDy=0;entryX=0;entryY=0.5;entryDx=0;entryDy=0;" parent="1" source="IOpTdZNfMsy9UCbYXnR_-23" target="IOpTdZNfMsy9UCbYXnR_-30" edge="1">
          <mxGeometry width="50" height="50" relative="1" as="geometry">
            <mxPoint x="1017.75" y="2215" as="sourcePoint" />
            <mxPoint x="767.75" y="2030" as="targetPoint" />
          </mxGeometry>
        </mxCell>
        <mxCell id="IOpTdZNfMsy9UCbYXnR_-32" value="&lt;font style=&quot;font-size: 10px;&quot;&gt;EMS WT&lt;/font&gt;" style="rounded=1;whiteSpace=wrap;html=1;" parent="1" vertex="1">
          <mxGeometry x="1042.75" y="2210" width="55" height="20" as="geometry" />
        </mxCell>
        <mxCell id="IOpTdZNfMsy9UCbYXnR_-33" value="" style="endArrow=classic;html=1;rounded=0;exitX=1;exitY=0.5;exitDx=0;exitDy=0;entryX=0;entryY=0.5;entryDx=0;entryDy=0;" parent="1" source="IOpTdZNfMsy9UCbYXnR_-34" target="IOpTdZNfMsy9UCbYXnR_-32" edge="1">
          <mxGeometry width="50" height="50" relative="1" as="geometry">
            <mxPoint x="1022.75" y="2220" as="sourcePoint" />
            <mxPoint x="772.75" y="2035" as="targetPoint" />
          </mxGeometry>
        </mxCell>
        <mxCell id="IOpTdZNfMsy9UCbYXnR_-34" value="&lt;font style=&quot;font-size: 10px;&quot;&gt;LOGO&lt;/font&gt;" style="rounded=1;whiteSpace=wrap;html=1;" parent="1" vertex="1">
          <mxGeometry x="967.75" y="2210" width="55" height="20" as="geometry" />
        </mxCell>
        <mxCell id="IOpTdZNfMsy9UCbYXnR_-35" value="&lt;span style=&quot;font-size: 10px;&quot;&gt;SMA inverter manager&lt;/span&gt;" style="rounded=1;whiteSpace=wrap;html=1;" parent="1" vertex="1">
          <mxGeometry x="1037.75" y="2175" width="105" height="20" as="geometry" />
        </mxCell>
        <mxCell id="IOpTdZNfMsy9UCbYXnR_-36" value="&lt;font style=&quot;font-size: 10px;&quot;&gt;SMA inverter manager&lt;/font&gt;" style="rounded=1;whiteSpace=wrap;html=1;" parent="1" vertex="1">
          <mxGeometry x="1042.75" y="2180" width="110" height="20" as="geometry" />
        </mxCell>
        <mxCell id="IOpTdZNfMsy9UCbYXnR_-37" value="" style="endArrow=classic;html=1;rounded=0;exitX=1;exitY=0.5;exitDx=0;exitDy=0;" parent="1" source="IOpTdZNfMsy9UCbYXnR_-29" target="IOpTdZNfMsy9UCbYXnR_-36" edge="1">
          <mxGeometry width="50" height="50" relative="1" as="geometry">
            <mxPoint x="647.75" y="2055" as="sourcePoint" />
            <mxPoint x="967.75" y="2190" as="targetPoint" />
          </mxGeometry>
        </mxCell>
        <mxCell id="IOpTdZNfMsy9UCbYXnR_-38" value="&lt;span style=&quot;font-size: 10px;&quot;&gt;timeserie db&amp;nbsp;&lt;/span&gt;&lt;div&gt;&lt;span style=&quot;font-size: 10px;&quot;&gt;RT &amp;amp; historical&lt;/span&gt;&lt;/div&gt;" style="text;html=1;align=center;verticalAlign=middle;whiteSpace=wrap;rounded=0;" parent="1" vertex="1">
          <mxGeometry x="490.75" y="1690" width="73" height="30" as="geometry" />
        </mxCell>
        <mxCell id="IOpTdZNfMsy9UCbYXnR_-39" value="&lt;div&gt;&lt;span style=&quot;font-size: 10px;&quot;&gt;OUT: PV SMA API&lt;/span&gt;&lt;/div&gt;" style="rounded=1;whiteSpace=wrap;html=1;fillColor=#66FF66;" parent="1" vertex="1">
          <mxGeometry x="651.75" y="2135.5" width="160" height="30" as="geometry" />
        </mxCell>
        <mxCell id="IOpTdZNfMsy9UCbYXnR_-40" value="&lt;div&gt;&lt;span style=&quot;font-size: 10px;&quot;&gt;OUT: MQTT Trevi&lt;/span&gt;&lt;/div&gt;" style="rounded=1;whiteSpace=wrap;html=1;dashed=1;" parent="1" vertex="1">
          <mxGeometry x="651.75" y="2220.5" width="160" height="30" as="geometry" />
        </mxCell>
        <mxCell id="IOpTdZNfMsy9UCbYXnR_-41" value="" style="endArrow=classic;html=1;rounded=0;exitX=1;exitY=0.25;exitDx=0;exitDy=0;entryX=0;entryY=0.25;entryDx=0;entryDy=0;fillColor=#66FF66;strokeColor=#66FF66;" parent="1" source="IOpTdZNfMsy9UCbYXnR_-16" target="IOpTdZNfMsy9UCbYXnR_-47" edge="1">
          <mxGeometry width="50" height="50" relative="1" as="geometry">
            <mxPoint x="559.75" y="2272" as="sourcePoint" />
            <mxPoint x="609.75" y="2222" as="targetPoint" />
          </mxGeometry>
        </mxCell>
        <mxCell id="IOpTdZNfMsy9UCbYXnR_-42" value="API" style="endArrow=classic;html=1;rounded=0;exitX=1;exitY=0.25;exitDx=0;exitDy=0;entryX=0;entryY=0.75;entryDx=0;entryDy=0;strokeColor=#66FF66;" parent="1" source="IOpTdZNfMsy9UCbYXnR_-39" target="IOpTdZNfMsy9UCbYXnR_-17" edge="1">
          <mxGeometry x="0.0986" width="50" height="50" relative="1" as="geometry">
            <mxPoint x="552.75" y="2128" as="sourcePoint" />
            <mxPoint x="602.75" y="2078" as="targetPoint" />
            <mxPoint as="offset" />
          </mxGeometry>
        </mxCell>
        <mxCell id="IOpTdZNfMsy9UCbYXnR_-43" value="" style="endArrow=classic;html=1;rounded=0;exitX=1;exitY=0.5;exitDx=0;exitDy=0;entryX=0;entryY=0.75;entryDx=0;entryDy=0;dashed=1;" parent="1" source="IOpTdZNfMsy9UCbYXnR_-40" target="IOpTdZNfMsy9UCbYXnR_-22" edge="1">
          <mxGeometry width="50" height="50" relative="1" as="geometry">
            <mxPoint x="642.75" y="2098" as="sourcePoint" />
            <mxPoint x="882.75" y="2238" as="targetPoint" />
          </mxGeometry>
        </mxCell>
        <mxCell id="IOpTdZNfMsy9UCbYXnR_-44" value="MQTT" style="edgeLabel;html=1;align=center;verticalAlign=middle;resizable=0;points=[];" parent="IOpTdZNfMsy9UCbYXnR_-43" vertex="1" connectable="0">
          <mxGeometry x="-0.1298" y="-1" relative="1" as="geometry">
            <mxPoint as="offset" />
          </mxGeometry>
        </mxCell>
        <mxCell id="IOpTdZNfMsy9UCbYXnR_-45" value="" style="endArrow=classic;html=1;rounded=0;exitX=1;exitY=0.25;exitDx=0;exitDy=0;entryX=0;entryY=0.75;entryDx=0;entryDy=0;dashed=1;" parent="1" source="IOpTdZNfMsy9UCbYXnR_-40" target="IOpTdZNfMsy9UCbYXnR_-27" edge="1">
          <mxGeometry width="50" height="50" relative="1" as="geometry">
            <mxPoint x="811.75" y="2205.5" as="sourcePoint" />
            <mxPoint x="882.75" y="2208" as="targetPoint" />
          </mxGeometry>
        </mxCell>
        <mxCell id="IOpTdZNfMsy9UCbYXnR_-46" value="MQTT" style="edgeLabel;html=1;align=center;verticalAlign=middle;resizable=0;points=[];" parent="IOpTdZNfMsy9UCbYXnR_-45" vertex="1" connectable="0">
          <mxGeometry x="-0.1188" y="1" relative="1" as="geometry">
            <mxPoint as="offset" />
          </mxGeometry>
        </mxCell>
        <mxCell id="IOpTdZNfMsy9UCbYXnR_-47" value="&lt;span style=&quot;font-size: 10px; background-color: initial;&quot;&gt;imbalance forecast + EMS&lt;/span&gt;" style="rounded=1;whiteSpace=wrap;html=1;fillColor=#66FF66;" parent="1" vertex="1">
          <mxGeometry x="221.75" y="2282.5" width="378.25" height="30" as="geometry" />
        </mxCell>
        <mxCell id="IOpTdZNfMsy9UCbYXnR_-49" value="Imbalance control" style="text;html=1;align=center;verticalAlign=middle;whiteSpace=wrap;rounded=0;fontStyle=1" parent="1" vertex="1">
          <mxGeometry x="262.75" y="2326" width="127.25" height="30" as="geometry" />
        </mxCell>
        <mxCell id="IOpTdZNfMsy9UCbYXnR_-50" value="&lt;div&gt;&lt;span style=&quot;font-size: 10px;&quot;&gt;OUT: API Powernaut&lt;/span&gt;&lt;/div&gt;" style="rounded=1;whiteSpace=wrap;html=1;dashed=1;" parent="1" vertex="1">
          <mxGeometry x="651.75" y="2275" width="160" height="30" as="geometry" />
        </mxCell>
        <mxCell id="IOpTdZNfMsy9UCbYXnR_-51" value="&lt;font style=&quot;font-size: 10px;&quot;&gt;EMS&lt;/font&gt;" style="rounded=1;whiteSpace=wrap;html=1;" parent="1" vertex="1">
          <mxGeometry x="967.75" y="2266.5" width="55" height="20" as="geometry" />
        </mxCell>
        <mxCell id="IOpTdZNfMsy9UCbYXnR_-52" value="&lt;font style=&quot;font-size: 10px;&quot;&gt;A1 dongle&lt;/font&gt;" style="rounded=1;whiteSpace=wrap;html=1;" parent="1" vertex="1">
          <mxGeometry x="887.75" y="2266.5" width="55" height="20" as="geometry" />
        </mxCell>
        <mxCell id="IOpTdZNfMsy9UCbYXnR_-53" value="" style="endArrow=classic;html=1;rounded=0;exitX=0.995;exitY=0.894;exitDx=0;exitDy=0;entryX=0;entryY=0.5;entryDx=0;entryDy=0;exitPerimeter=0;dashed=1;" parent="1" source="IOpTdZNfMsy9UCbYXnR_-40" target="IOpTdZNfMsy9UCbYXnR_-52" edge="1">
          <mxGeometry width="50" height="50" relative="1" as="geometry">
            <mxPoint x="821.75" y="2270.5" as="sourcePoint" />
            <mxPoint x="897.75" y="2272.5" as="targetPoint" />
          </mxGeometry>
        </mxCell>
        <mxCell id="IOpTdZNfMsy9UCbYXnR_-54" value="MQTT" style="edgeLabel;html=1;align=center;verticalAlign=middle;resizable=0;points=[];" parent="IOpTdZNfMsy9UCbYXnR_-53" vertex="1" connectable="0">
          <mxGeometry x="-0.1298" y="-1" relative="1" as="geometry">
            <mxPoint as="offset" />
          </mxGeometry>
        </mxCell>
        <mxCell id="IOpTdZNfMsy9UCbYXnR_-55" value="" style="endArrow=classic;html=1;rounded=0;exitX=1;exitY=0.5;exitDx=0;exitDy=0;entryX=0;entryY=0.5;entryDx=0;entryDy=0;" parent="1" source="IOpTdZNfMsy9UCbYXnR_-52" target="IOpTdZNfMsy9UCbYXnR_-51" edge="1">
          <mxGeometry width="50" height="50" relative="1" as="geometry">
            <mxPoint x="957.75" y="2245.5" as="sourcePoint" />
            <mxPoint x="977.75" y="2245.5" as="targetPoint" />
          </mxGeometry>
        </mxCell>
        <mxCell id="IOpTdZNfMsy9UCbYXnR_-56" value="&lt;font style=&quot;font-size: 10px;&quot;&gt;EMS&lt;/font&gt;" style="rounded=1;whiteSpace=wrap;html=1;" parent="1" vertex="1">
          <mxGeometry x="972.75" y="2271.5" width="55" height="20" as="geometry" />
        </mxCell>
        <mxCell id="IOpTdZNfMsy9UCbYXnR_-57" value="&lt;font style=&quot;font-size: 10px;&quot;&gt;A1 dongle&lt;/font&gt;" style="rounded=1;whiteSpace=wrap;html=1;" parent="1" vertex="1">
          <mxGeometry x="892.75" y="2271.5" width="55" height="20" as="geometry" />
        </mxCell>
        <mxCell id="IOpTdZNfMsy9UCbYXnR_-58" value="" style="endArrow=classic;html=1;rounded=0;exitX=1;exitY=0.5;exitDx=0;exitDy=0;entryX=0;entryY=0.5;entryDx=0;entryDy=0;" parent="1" source="IOpTdZNfMsy9UCbYXnR_-57" target="IOpTdZNfMsy9UCbYXnR_-56" edge="1">
          <mxGeometry width="50" height="50" relative="1" as="geometry">
            <mxPoint x="962.75" y="2250.5" as="sourcePoint" />
            <mxPoint x="982.75" y="2250.5" as="targetPoint" />
          </mxGeometry>
        </mxCell>
        <mxCell id="IOpTdZNfMsy9UCbYXnR_-59" value="&lt;font style=&quot;font-size: 10px;&quot;&gt;EMS&lt;/font&gt;" style="rounded=1;whiteSpace=wrap;html=1;" parent="1" vertex="1">
          <mxGeometry x="976.75" y="2275.5" width="55" height="20" as="geometry" />
        </mxCell>
        <mxCell id="IOpTdZNfMsy9UCbYXnR_-60" value="&lt;font style=&quot;font-size: 10px;&quot;&gt;A1 dongle&lt;/font&gt;" style="rounded=1;whiteSpace=wrap;html=1;" parent="1" vertex="1">
          <mxGeometry x="896.75" y="2275.5" width="55" height="20" as="geometry" />
        </mxCell>
        <mxCell id="IOpTdZNfMsy9UCbYXnR_-61" value="" style="endArrow=classic;html=1;rounded=0;exitX=1;exitY=0.5;exitDx=0;exitDy=0;entryX=0;entryY=0.5;entryDx=0;entryDy=0;" parent="1" source="IOpTdZNfMsy9UCbYXnR_-60" target="IOpTdZNfMsy9UCbYXnR_-59" edge="1">
          <mxGeometry width="50" height="50" relative="1" as="geometry">
            <mxPoint x="966.75" y="2254.5" as="sourcePoint" />
            <mxPoint x="986.75" y="2254.5" as="targetPoint" />
          </mxGeometry>
        </mxCell>
        <mxCell id="IOpTdZNfMsy9UCbYXnR_-62" value="&lt;font style=&quot;font-size: 10px;&quot;&gt;EMS&lt;/font&gt;" style="rounded=1;whiteSpace=wrap;html=1;" parent="1" vertex="1">
          <mxGeometry x="981.75" y="2281" width="55" height="20" as="geometry" />
        </mxCell>
        <mxCell id="IOpTdZNfMsy9UCbYXnR_-63" value="&lt;font style=&quot;font-size: 10px;&quot;&gt;A1 dongle&lt;/font&gt;" style="rounded=1;whiteSpace=wrap;html=1;" parent="1" vertex="1">
          <mxGeometry x="901.75" y="2281" width="55" height="20" as="geometry" />
        </mxCell>
        <mxCell id="IOpTdZNfMsy9UCbYXnR_-64" value="" style="endArrow=classic;html=1;rounded=0;exitX=1;exitY=0.5;exitDx=0;exitDy=0;entryX=0;entryY=0.5;entryDx=0;entryDy=0;" parent="1" source="IOpTdZNfMsy9UCbYXnR_-63" target="IOpTdZNfMsy9UCbYXnR_-62" edge="1">
          <mxGeometry width="50" height="50" relative="1" as="geometry">
            <mxPoint x="971.75" y="2260" as="sourcePoint" />
            <mxPoint x="991.75" y="2260" as="targetPoint" />
          </mxGeometry>
        </mxCell>
        <mxCell id="IOpTdZNfMsy9UCbYXnR_-65" value="&lt;div&gt;Amazon&lt;/div&gt;&lt;div&gt;Timestream&lt;/div&gt;InfluxDB" style="shape=cylinder3;whiteSpace=wrap;html=1;boundedLbl=1;backgroundOutline=1;size=15;strokeColor=#000000;fillColor=#66FF66;" parent="1" vertex="1">
          <mxGeometry x="493.75" y="1722" width="67" height="89" as="geometry" />
        </mxCell>
        <mxCell id="IOpTdZNfMsy9UCbYXnR_-66" value="&lt;font style=&quot;font-size: 10px;&quot;&gt;Ewon&lt;/font&gt;" style="rounded=1;whiteSpace=wrap;html=1;" parent="1" vertex="1">
          <mxGeometry x="887.75" y="2237" width="55" height="20" as="geometry" />
        </mxCell>
        <mxCell id="IOpTdZNfMsy9UCbYXnR_-67" value="&lt;font style=&quot;font-size: 10px;&quot;&gt;EMS BESS&lt;/font&gt;" style="rounded=1;whiteSpace=wrap;html=1;" parent="1" vertex="1">
          <mxGeometry x="962.75" y="2237" width="55" height="20" as="geometry" />
        </mxCell>
        <mxCell id="IOpTdZNfMsy9UCbYXnR_-68" value="" style="endArrow=classic;html=1;rounded=0;exitX=1;exitY=0.5;exitDx=0;exitDy=0;entryX=0;entryY=0.5;entryDx=0;entryDy=0;" parent="1" source="IOpTdZNfMsy9UCbYXnR_-66" target="IOpTdZNfMsy9UCbYXnR_-67" edge="1">
          <mxGeometry width="50" height="50" relative="1" as="geometry">
            <mxPoint x="642.75" y="2112" as="sourcePoint" />
            <mxPoint x="692.75" y="2062" as="targetPoint" />
          </mxGeometry>
        </mxCell>
        <mxCell id="IOpTdZNfMsy9UCbYXnR_-69" value="&lt;font style=&quot;font-size: 10px;&quot;&gt;Ewon&lt;/font&gt;" style="rounded=1;whiteSpace=wrap;html=1;" parent="1" vertex="1">
          <mxGeometry x="892.75" y="2242" width="55" height="20" as="geometry" />
        </mxCell>
        <mxCell id="IOpTdZNfMsy9UCbYXnR_-70" value="" style="endArrow=classic;html=1;rounded=0;exitX=1;exitY=0.5;exitDx=0;exitDy=0;entryX=0;entryY=0.5;entryDx=0;entryDy=0;" parent="1" source="IOpTdZNfMsy9UCbYXnR_-69" target="IOpTdZNfMsy9UCbYXnR_-71" edge="1">
          <mxGeometry width="50" height="50" relative="1" as="geometry">
            <mxPoint x="647.75" y="2117" as="sourcePoint" />
            <mxPoint x="697.75" y="2067" as="targetPoint" />
          </mxGeometry>
        </mxCell>
        <mxCell id="IOpTdZNfMsy9UCbYXnR_-71" value="&lt;font style=&quot;font-size: 6px;&quot;&gt;Phoenix Contact&lt;/font&gt;&lt;font style=&quot;font-size: 10px;&quot;&gt; MINT&lt;/font&gt;" style="rounded=1;whiteSpace=wrap;html=1;" parent="1" vertex="1">
          <mxGeometry x="1027.75" y="2242" width="83" height="20" as="geometry" />
        </mxCell>
        <mxCell id="IOpTdZNfMsy9UCbYXnR_-72" value="" style="endArrow=classic;html=1;rounded=0;exitX=1;exitY=0.75;exitDx=0;exitDy=0;entryX=0;entryY=0.5;entryDx=0;entryDy=0;dashed=1;" parent="1" source="IOpTdZNfMsy9UCbYXnR_-40" target="IOpTdZNfMsy9UCbYXnR_-66" edge="1">
          <mxGeometry width="50" height="50" relative="1" as="geometry">
            <mxPoint x="821.75" y="2245" as="sourcePoint" />
            <mxPoint x="897.75" y="2248" as="targetPoint" />
          </mxGeometry>
        </mxCell>
        <mxCell id="IOpTdZNfMsy9UCbYXnR_-73" value="MQTT" style="edgeLabel;html=1;align=center;verticalAlign=middle;resizable=0;points=[];" parent="IOpTdZNfMsy9UCbYXnR_-72" vertex="1" connectable="0">
          <mxGeometry x="-0.1298" y="-1" relative="1" as="geometry">
            <mxPoint as="offset" />
          </mxGeometry>
        </mxCell>
        <mxCell id="IOpTdZNfMsy9UCbYXnR_-75" value="&lt;p style=&quot;margin: 0in; font-size: 7.5pt;&quot;&gt;&lt;span style=&quot;background-image: initial; background-position: initial; background-size: initial; background-repeat: initial; background-attachment: initial; background-origin: initial; background-clip: initial;&quot;&gt;Status monitoring/alerting&lt;/span&gt;&lt;/p&gt;" style="rounded=1;whiteSpace=wrap;html=1;dashed=1;strokeColor=none;" parent="1" vertex="1">
          <mxGeometry x="703.75" y="1720" width="131" height="11" as="geometry" />
        </mxCell>
        <mxCell id="IOpTdZNfMsy9UCbYXnR_-78" value="&lt;b&gt;&lt;font style=&quot;font-size: 20px;&quot;&gt;&lt;u style=&quot;&quot;&gt;Future&lt;/u&gt;&lt;/font&gt;&lt;/b&gt;&lt;div&gt;&lt;font style=&quot;font-size: 16px;&quot;&gt;trigger dependent&lt;/font&gt;&lt;/div&gt;" style="text;html=1;align=left;verticalAlign=middle;whiteSpace=wrap;rounded=0;" parent="1" vertex="1">
          <mxGeometry x="7.25" y="1672" width="150" height="50" as="geometry" />
        </mxCell>
        <mxCell id="IOpTdZNfMsy9UCbYXnR_-81" value="&lt;p style=&quot;margin: 0in; font-size: 7.5pt;&quot;&gt;&lt;span style=&quot;background-image: initial; background-position: initial; background-size: initial; background-repeat: initial; background-attachment: initial; background-origin: initial; background-clip: initial;&quot;&gt;reporting&lt;/span&gt;&lt;/p&gt;" style="rounded=1;whiteSpace=wrap;html=1;dashed=1;strokeColor=none;" parent="1" vertex="1">
          <mxGeometry x="704.75" y="1711" width="131" height="7" as="geometry" />
        </mxCell>
        <mxCell id="IOpTdZNfMsy9UCbYXnR_-82" value="&lt;font style=&quot;font-size: 10px;&quot;&gt;S3 bucket with config files&lt;/font&gt;" style="rounded=1;whiteSpace=wrap;html=1;fillColor=#66FF66;" parent="1" vertex="1">
          <mxGeometry x="262.75" y="1771" width="160" height="30" as="geometry" />
        </mxCell>
        <mxCell id="IOpTdZNfMsy9UCbYXnR_-83" value="" style="endArrow=classic;html=1;rounded=0;exitX=0;exitY=0;exitDx=0;exitDy=0;strokeColor=#66FF66;entryX=1;entryY=1;entryDx=0;entryDy=0;" parent="1" source="IOpTdZNfMsy9UCbYXnR_-39" target="IOpTdZNfMsy9UCbYXnR_-65" edge="1">
          <mxGeometry width="50" height="50" relative="1" as="geometry">
            <mxPoint x="529.75" y="2261" as="sourcePoint" />
            <mxPoint x="534.75" y="2034" as="targetPoint" />
          </mxGeometry>
        </mxCell>
        <mxCell id="IOpTdZNfMsy9UCbYXnR_-84" value="&lt;font style=&quot;font-size: 10px;&quot;&gt;Powernaut cloud&lt;/font&gt;" style="rounded=1;whiteSpace=wrap;html=1;" parent="1" vertex="1">
          <mxGeometry x="886.75" y="2313.5" width="110" height="20" as="geometry" />
        </mxCell>
        <mxCell id="IOpTdZNfMsy9UCbYXnR_-85" value="" style="endArrow=classic;html=1;rounded=0;exitX=1;exitY=0.5;exitDx=0;exitDy=0;entryX=0;entryY=0.25;entryDx=0;entryDy=0;dashed=1;" parent="1" source="IOpTdZNfMsy9UCbYXnR_-50" target="IOpTdZNfMsy9UCbYXnR_-84" edge="1">
          <mxGeometry width="50" height="50" relative="1" as="geometry">
            <mxPoint x="792.75" y="2355" as="sourcePoint" />
            <mxPoint x="868.75" y="2317" as="targetPoint" />
          </mxGeometry>
        </mxCell>
        <mxCell id="IOpTdZNfMsy9UCbYXnR_-86" value="API" style="edgeLabel;html=1;align=center;verticalAlign=middle;resizable=0;points=[];" parent="IOpTdZNfMsy9UCbYXnR_-85" vertex="1" connectable="0">
          <mxGeometry x="-0.1188" y="1" relative="1" as="geometry">
            <mxPoint as="offset" />
          </mxGeometry>
        </mxCell>
        <mxCell id="IOpTdZNfMsy9UCbYXnR_-90" value="OUT" style="text;html=1;align=center;verticalAlign=middle;whiteSpace=wrap;rounded=0;fontStyle=1" parent="1" vertex="1">
          <mxGeometry x="684.75" y="2326" width="110" height="30" as="geometry" />
        </mxCell>
        <mxCell id="IOpTdZNfMsy9UCbYXnR_-91" value="Elastic Container Service (ECS)&amp;nbsp;&lt;div&gt;AWS Fargate&lt;/div&gt;" style="text;html=1;align=left;verticalAlign=middle;whiteSpace=wrap;rounded=0;fontStyle=1" parent="1" vertex="1">
          <mxGeometry x="669.75" y="1802" width="254" height="30" as="geometry" />
        </mxCell>
        <mxCell id="IOpTdZNfMsy9UCbYXnR_-92" value="" style="endArrow=classic;html=1;rounded=0;exitX=0;exitY=0;exitDx=0;exitDy=0;strokeColor=#000000;entryX=1;entryY=1;entryDx=0;entryDy=0;dashed=1;" parent="1" source="IOpTdZNfMsy9UCbYXnR_-40" target="IOpTdZNfMsy9UCbYXnR_-65" edge="1">
          <mxGeometry width="50" height="50" relative="1" as="geometry">
            <mxPoint x="661.75" y="2146" as="sourcePoint" />
            <mxPoint x="573.75" y="1834" as="targetPoint" />
          </mxGeometry>
        </mxCell>
        <mxCell id="IOpTdZNfMsy9UCbYXnR_-93" value="" style="endArrow=classic;html=1;rounded=0;exitX=0;exitY=0;exitDx=0;exitDy=0;strokeColor=#000000;entryX=1;entryY=1;entryDx=0;entryDy=0;dashed=1;" parent="1" source="IOpTdZNfMsy9UCbYXnR_-50" target="IOpTdZNfMsy9UCbYXnR_-65" edge="1">
          <mxGeometry width="50" height="50" relative="1" as="geometry">
            <mxPoint x="661.75" y="2231" as="sourcePoint" />
            <mxPoint x="573.75" y="1834" as="targetPoint" />
          </mxGeometry>
        </mxCell>
        <mxCell id="IOpTdZNfMsy9UCbYXnR_-116" value="" style="endArrow=classic;html=1;rounded=0;exitX=0.5;exitY=0;exitDx=0;exitDy=0;entryX=0.25;entryY=1;entryDx=0;entryDy=0;strokeColor=#66FF66;" parent="1" source="IOpTdZNfMsy9UCbYXnR_-47" target="IOpTdZNfMsy9UCbYXnR_-65" edge="1">
          <mxGeometry width="50" height="50" relative="1" as="geometry">
            <mxPoint x="409.75" y="2169" as="sourcePoint" />
            <mxPoint x="498.45000000000005" y="2024.6499999999996" as="targetPoint" />
          </mxGeometry>
        </mxCell>
        <mxCell id="IOpTdZNfMsy9UCbYXnR_-117" value="" style="sketch=0;outlineConnect=0;fontColor=#232F3E;gradientColor=none;strokeColor=#ffffff;fillColor=#232F3E;dashed=0;verticalLabelPosition=middle;verticalAlign=bottom;align=center;html=1;whiteSpace=wrap;fontSize=10;fontStyle=1;spacing=3;shape=mxgraph.aws4.productIcon;prIcon=mxgraph.aws4.fargate;" parent="1" vertex="1">
          <mxGeometry x="825.75" y="1819" width="30" height="21" as="geometry" />
        </mxCell>
        <mxCell id="IOpTdZNfMsy9UCbYXnR_-118" value="" style="image;sketch=0;aspect=fixed;html=1;points=[];align=center;fontSize=12;image=img/lib/mscae/Docker.svg;" parent="1" vertex="1">
          <mxGeometry x="217.75" y="2326" width="32.98" height="27.04" as="geometry" />
        </mxCell>
        <mxCell id="IOpTdZNfMsy9UCbYXnR_-119" value="" style="image;aspect=fixed;html=1;points=[];align=center;fontSize=12;image=img/lib/azure2/other/Grafana.svg;" parent="1" vertex="1">
          <mxGeometry x="688.92" y="1754.6" width="29.36" height="22.8" as="geometry" />
        </mxCell>
        <mxCell id="IOpTdZNfMsy9UCbYXnR_-120" value="" style="sketch=0;outlineConnect=0;fontColor=#232F3E;gradientColor=none;fillColor=#7AA116;strokeColor=none;dashed=0;verticalLabelPosition=bottom;verticalAlign=top;align=center;html=1;fontSize=12;fontStyle=0;aspect=fixed;pointerEvents=1;shape=mxgraph.aws4.bucket;" parent="1" vertex="1">
          <mxGeometry x="401.75" y="1775.44" width="20" height="20.8" as="geometry" />
        </mxCell>
        <mxCell id="IOpTdZNfMsy9UCbYXnR_-121" value="" style="outlineConnect=0;dashed=0;verticalLabelPosition=bottom;verticalAlign=top;align=center;html=1;shape=mxgraph.aws3.s3;fillColor=#E05243;gradientColor=none;" parent="1" vertex="1">
          <mxGeometry x="264.92" y="1775.44" width="16.5" height="21" as="geometry" />
        </mxCell>
        <mxCell id="IOpTdZNfMsy9UCbYXnR_-123" value="" style="image;sketch=0;aspect=fixed;html=1;points=[];align=center;fontSize=12;image=img/lib/mscae/Docker.svg;" parent="1" vertex="1">
          <mxGeometry x="660.75" y="2326" width="32.98" height="27.04" as="geometry" />
        </mxCell>
        <mxCell id="IOpTdZNfMsy9UCbYXnR_-124" value="" style="ellipse;whiteSpace=wrap;html=1;fillColor=#FFF2CC;strokeColor=none;" parent="1" vertex="1">
          <mxGeometry x="972.75" y="2390" width="170" height="72" as="geometry" />
        </mxCell>
        <mxCell id="IOpTdZNfMsy9UCbYXnR_-125" value="SNS" style="sketch=0;points=[[0,0,0],[0.25,0,0],[0.5,0,0],[0.75,0,0],[1,0,0],[0,1,0],[0.25,1,0],[0.5,1,0],[0.75,1,0],[1,1,0],[0,0.25,0],[0,0.5,0],[0,0.75,0],[1,0.25,0],[1,0.5,0],[1,0.75,0]];outlineConnect=0;fontColor=#232F3E;fillColor=#E7157B;strokeColor=#ffffff;dashed=0;verticalLabelPosition=bottom;verticalAlign=top;align=center;html=1;fontSize=12;fontStyle=0;aspect=fixed;shape=mxgraph.aws4.resourceIcon;resIcon=mxgraph.aws4.sns;" parent="1" vertex="1">
          <mxGeometry x="1014.75" y="2402" width="28.5" height="28.5" as="geometry" />
        </mxCell>
        <mxCell id="IOpTdZNfMsy9UCbYXnR_-127" value="" style="endArrow=classic;html=1;rounded=0;strokeColor=#000000;strokeWidth=1;" parent="1" edge="1">
          <mxGeometry width="50" height="50" relative="1" as="geometry">
            <mxPoint x="985.25" y="2417.66" as="sourcePoint" />
            <mxPoint x="1015.25" y="2417.66" as="targetPoint" />
          </mxGeometry>
        </mxCell>
        <mxCell id="IOpTdZNfMsy9UCbYXnR_-128" value="" style="endArrow=classic;html=1;rounded=0;strokeColor=#000000;strokeWidth=1;" parent="1" edge="1">
          <mxGeometry width="50" height="50" relative="1" as="geometry">
            <mxPoint x="1043.25" y="2417.66" as="sourcePoint" />
            <mxPoint x="1073.25" y="2417.66" as="targetPoint" />
          </mxGeometry>
        </mxCell>
        <mxCell id="IOpTdZNfMsy9UCbYXnR_-131" value="" style="endArrow=classic;html=1;rounded=0;exitX=1;exitY=0.5;exitDx=0;exitDy=0;entryX=0.004;entryY=0.931;entryDx=0;entryDy=0;strokeColor=light-dark(#66ff66, #ff9090);strokeWidth=1;entryPerimeter=0;" parent="1" target="IOpTdZNfMsy9UCbYXnR_-39" edge="1">
          <mxGeometry width="50" height="50" relative="1" as="geometry">
            <mxPoint x="599.7499999999998" y="2289.5" as="sourcePoint" />
            <mxPoint x="609.75" y="2222" as="targetPoint" />
          </mxGeometry>
        </mxCell>
        <mxCell id="IOpTdZNfMsy9UCbYXnR_-132" value="" style="endArrow=classic;html=1;rounded=0;exitX=1;exitY=0.5;exitDx=0;exitDy=0;entryX=0;entryY=0.5;entryDx=0;entryDy=0;dashed=1;" parent="1" target="IOpTdZNfMsy9UCbYXnR_-40" edge="1">
          <mxGeometry width="50" height="50" relative="1" as="geometry">
            <mxPoint x="599.7499999999998" y="2289.5" as="sourcePoint" />
            <mxPoint x="651.75" y="2343" as="targetPoint" />
          </mxGeometry>
        </mxCell>
        <mxCell id="IOpTdZNfMsy9UCbYXnR_-133" value="" style="endArrow=classic;html=1;rounded=0;exitX=1;exitY=0.5;exitDx=0;exitDy=0;entryX=0;entryY=0.5;entryDx=0;entryDy=0;dashed=1;" parent="1" target="IOpTdZNfMsy9UCbYXnR_-50" edge="1">
          <mxGeometry width="50" height="50" relative="1" as="geometry">
            <mxPoint x="599.7499999999998" y="2289.5" as="sourcePoint" />
            <mxPoint x="662.75" y="2356" as="targetPoint" />
          </mxGeometry>
        </mxCell>
        <mxCell id="IOpTdZNfMsy9UCbYXnR_-134" value="" style="sketch=0;outlineConnect=0;fontColor=#232F3E;gradientColor=none;strokeColor=#ffffff;fillColor=#232F3E;dashed=0;verticalLabelPosition=middle;verticalAlign=bottom;align=center;html=1;whiteSpace=wrap;fontSize=10;fontStyle=1;spacing=3;shape=mxgraph.aws4.productIcon;prIcon=mxgraph.aws4.ecs;" parent="1" vertex="1">
          <mxGeometry x="786.25" y="1819" width="30" height="40" as="geometry" />
        </mxCell>
        <mxCell id="IOpTdZNfMsy9UCbYXnR_-136" value="" style="endArrow=classic;html=1;rounded=0;entryX=0.5;entryY=1;entryDx=0;entryDy=0;exitX=0.973;exitY=0.075;exitDx=0;exitDy=0;strokeColor=#66FF66;exitPerimeter=0;" parent="1" source="IOpTdZNfMsy9UCbYXnR_-47" target="IOpTdZNfMsy9UCbYXnR_-65" edge="1">
          <mxGeometry width="50" height="50" relative="1" as="geometry">
            <mxPoint x="589.7625" y="2277.77" as="sourcePoint" />
            <mxPoint x="120.75" y="2145" as="targetPoint" />
          </mxGeometry>
        </mxCell>
        <mxCell id="IOpTdZNfMsy9UCbYXnR_-143" value="" style="endArrow=classic;html=1;rounded=0;exitX=0.373;exitY=0.999;exitDx=0;exitDy=0;strokeColor=#000000;entryX=0.538;entryY=-0.048;entryDx=0;entryDy=0;dashed=1;entryPerimeter=0;exitPerimeter=0;" parent="1" source="IOpTdZNfMsy9UCbYXnR_-65" target="IOpTdZNfMsy9UCbYXnR_-47" edge="1">
          <mxGeometry width="50" height="50" relative="1" as="geometry">
            <mxPoint x="393" y="2190" as="sourcePoint" />
            <mxPoint x="504" y="1834" as="targetPoint" />
          </mxGeometry>
        </mxCell>
        <mxCell id="IOpTdZNfMsy9UCbYXnR_-126" value="SQS" style="sketch=0;points=[[0,0,0],[0.25,0,0],[0.5,0,0],[0.75,0,0],[1,0,0],[0,1,0],[0.25,1,0],[0.5,1,0],[0.75,1,0],[1,1,0],[0,0.25,0],[0,0.5,0],[0,0.75,0],[1,0.25,0],[1,0.5,0],[1,0.75,0]];outlineConnect=0;fontColor=#232F3E;fillColor=#E7157B;strokeColor=#ffffff;dashed=0;verticalLabelPosition=bottom;verticalAlign=top;align=center;html=1;fontSize=12;fontStyle=0;aspect=fixed;shape=mxgraph.aws4.resourceIcon;resIcon=mxgraph.aws4.sqs;" parent="1" vertex="1">
          <mxGeometry x="1072.75" y="2402" width="28" height="28" as="geometry" />
        </mxCell>
        <mxCell id="IOpTdZNfMsy9UCbYXnR_-129" value="" style="endArrow=classic;html=1;rounded=0;strokeColor=#000000;strokeWidth=1;" parent="1" edge="1">
          <mxGeometry width="50" height="50" relative="1" as="geometry">
            <mxPoint x="1100.75" y="2417.66" as="sourcePoint" />
            <mxPoint x="1130.75" y="2417.66" as="targetPoint" />
          </mxGeometry>
        </mxCell>
        <mxCell id="IOpTdZNfMsy9UCbYXnR_-130" value="" style="ellipse;whiteSpace=wrap;html=1;fillColor=#FFF2CC;strokeColor=none;rotation=-90;opacity=80;" parent="1" vertex="1">
          <mxGeometry x="556.23" y="2243.25" width="137.25" height="27.5" as="geometry" />
        </mxCell>
        <mxCell id="IOpTdZNfMsy9UCbYXnR_-139" value="Trigger: 1min imbalance price" style="text;html=1;align=right;verticalAlign=middle;whiteSpace=wrap;rounded=0;fontStyle=0;fontSize=10;" parent="1" vertex="1">
          <mxGeometry x="441.75" y="2332" width="162.25" height="30" as="geometry" />
        </mxCell>
        <mxCell id="IOpTdZNfMsy9UCbYXnR_-135" value="" style="rounded=1;whiteSpace=wrap;html=1;dashed=1;" parent="1" vertex="1">
          <mxGeometry x="423.75" y="2070" width="192" height="138" as="geometry" />
        </mxCell>
        <mxCell id="IOpTdZNfMsy9UCbYXnR_-89" value="process" style="text;html=1;align=center;verticalAlign=middle;whiteSpace=wrap;rounded=0;fontStyle=1" parent="1" vertex="1">
          <mxGeometry x="464.75" y="2173" width="110" height="30" as="geometry" />
        </mxCell>
        <mxCell id="IOpTdZNfMsy9UCbYXnR_-122" value="" style="image;sketch=0;aspect=fixed;html=1;points=[];align=center;fontSize=12;image=img/lib/mscae/Docker.svg;" parent="1" vertex="1">
          <mxGeometry x="439.75" y="2178" width="32.98" height="27.04" as="geometry" />
        </mxCell>
        <mxCell id="IOpTdZNfMsy9UCbYXnR_-142" value="&lt;span style=&quot;font-size: 10px;&quot;&gt;EMS solver&lt;/span&gt;&lt;div&gt;&lt;span style=&quot;font-size: 10px;&quot;&gt;(24h load shifting)&lt;/span&gt;&lt;/div&gt;" style="rounded=1;whiteSpace=wrap;html=1;dashed=1;" parent="1" vertex="1">
          <mxGeometry x="439.75" y="2138" width="160" height="30" as="geometry" />
        </mxCell>
        <mxCell id="IOpTdZNfMsy9UCbYXnR_-144" value="" style="endArrow=classic;html=1;rounded=0;exitX=0.389;exitY=1.007;exitDx=0;exitDy=0;strokeColor=#000000;entryX=0.136;entryY=0.035;entryDx=0;entryDy=0;dashed=1;exitPerimeter=0;entryPerimeter=0;" parent="1" source="IOpTdZNfMsy9UCbYXnR_-65" target="IOpTdZNfMsy9UCbYXnR_-142" edge="1">
          <mxGeometry width="50" height="50" relative="1" as="geometry">
            <mxPoint x="610" y="2178" as="sourcePoint" />
            <mxPoint x="435" y="2291" as="targetPoint" />
          </mxGeometry>
        </mxCell>
        <mxCell id="IOpTdZNfMsy9UCbYXnR_-145" value="" style="endArrow=classic;html=1;rounded=0;strokeColor=#000000;entryX=0.174;entryY=-0.048;entryDx=0;entryDy=0;dashed=1;exitX=0.36;exitY=1.017;exitDx=0;exitDy=0;exitPerimeter=0;entryPerimeter=0;" parent="1" source="IOpTdZNfMsy9UCbYXnR_-65" target="IOpTdZNfMsy9UCbYXnR_-140" edge="1">
          <mxGeometry width="50" height="50" relative="1" as="geometry">
            <mxPoint x="530" y="2132" as="sourcePoint" />
            <mxPoint x="530" y="2148" as="targetPoint" />
          </mxGeometry>
        </mxCell>
        <mxCell id="IOpTdZNfMsy9UCbYXnR_-146" value="" style="endArrow=classic;html=1;rounded=0;strokeColor=#000000;entryX=0.765;entryY=0.953;entryDx=0;entryDy=0;dashed=1;entryPerimeter=0;" parent="1" target="IOpTdZNfMsy9UCbYXnR_-65" edge="1">
          <mxGeometry width="50" height="50" relative="1" as="geometry">
            <mxPoint x="590" y="2136" as="sourcePoint" />
            <mxPoint x="490" y="2148" as="targetPoint" />
          </mxGeometry>
        </mxCell>
        <mxCell id="IOpTdZNfMsy9UCbYXnR_-147" value="" style="endArrow=classic;html=1;rounded=0;exitX=0.948;exitY=-0.071;exitDx=0;exitDy=0;strokeColor=#000000;entryX=0.775;entryY=0.984;entryDx=0;entryDy=0;dashed=1;exitPerimeter=0;entryPerimeter=0;" parent="1" source="IOpTdZNfMsy9UCbYXnR_-140" target="IOpTdZNfMsy9UCbYXnR_-65" edge="1">
          <mxGeometry width="50" height="50" relative="1" as="geometry">
            <mxPoint x="592" y="2146" as="sourcePoint" />
            <mxPoint x="555" y="1830" as="targetPoint" />
          </mxGeometry>
        </mxCell>
        <mxCell id="IOpTdZNfMsy9UCbYXnR_-141" value="Trigger: scheduled (1h)" style="text;html=1;align=right;verticalAlign=middle;whiteSpace=wrap;rounded=0;fontStyle=0;fontSize=10;" parent="1" vertex="1">
          <mxGeometry x="443.75" y="2187.5" width="162.25" height="30" as="geometry" />
        </mxCell>
        <mxCell id="IOpTdZNfMsy9UCbYXnR_-140" value="&lt;span style=&quot;font-size: 10px;&quot;&gt;Forecast&lt;/span&gt;" style="rounded=1;whiteSpace=wrap;html=1;dashed=1;" parent="1" vertex="1">
          <mxGeometry x="439.75" y="2092" width="160" height="30" as="geometry" />
        </mxCell>
        <mxCell id="IOpTdZNfMsy9UCbYXnR_-149" value="&lt;span style=&quot;font-size: 10px; background-color: initial;&quot;&gt;imbalance forecast&lt;/span&gt;" style="rounded=1;whiteSpace=wrap;html=1;fillColor=#66FF66;dashed=1;dashPattern=1 2;" parent="1" vertex="1">
          <mxGeometry x="221" y="2282.5" width="189" height="30" as="geometry" />
        </mxCell>
        <mxCell id="IOpTdZNfMsy9UCbYXnR_-150" value="&lt;span style=&quot;font-size: 10px; background-color: initial;&quot;&gt;EMS&lt;/span&gt;" style="rounded=1;whiteSpace=wrap;html=1;fillColor=#66FF66;dashed=1;dashPattern=1 2;" parent="1" vertex="1">
          <mxGeometry x="411" y="2282.5" width="189" height="30" as="geometry" />
        </mxCell>
        <mxCell id="LeE3TAbRjy3OZpj1xcED-1" value="&lt;font style=&quot;font-size: 10px;&quot;&gt;Fluvius&lt;/font&gt;&lt;div&gt;&lt;font style=&quot;font-size: 8px;&quot;&gt;consumption&lt;/font&gt;&lt;/div&gt;" style="rounded=1;whiteSpace=wrap;html=1;dashed=1;" vertex="1" parent="1">
          <mxGeometry x="30" y="2062" width="100" height="30" as="geometry" />
        </mxCell>
        <mxCell id="LeE3TAbRjy3OZpj1xcED-2" value="&lt;font style=&quot;font-size: 10px;&quot;&gt;A1 dongle&lt;/font&gt;" style="rounded=1;whiteSpace=wrap;html=1;" vertex="1" parent="1">
          <mxGeometry x="39.13" y="2168" width="100" height="14" as="geometry" />
        </mxCell>
        <mxCell id="LeE3TAbRjy3OZpj1xcED-3" value="&lt;span style=&quot;font-size: 10px;&quot;&gt;SMA cloud&lt;/span&gt;" style="rounded=1;whiteSpace=wrap;html=1;dashed=1;" vertex="1" parent="1">
          <mxGeometry x="38.76" y="2187" width="100" height="30" as="geometry" />
        </mxCell>
        <mxCell id="LeE3TAbRjy3OZpj1xcED-4" value="&lt;span style=&quot;font-size: 10px;&quot;&gt;Next Kraftwerke&lt;/span&gt;&lt;div&gt;&lt;font style=&quot;font-size: 8px;&quot;&gt;nominations, belpex&lt;/font&gt;&lt;/div&gt;" style="rounded=1;whiteSpace=wrap;html=1;" vertex="1" parent="1">
          <mxGeometry x="26.75" y="2027" width="108" height="30" as="geometry" />
        </mxCell>
        <mxCell id="LeE3TAbRjy3OZpj1xcED-5" value="&lt;font style=&quot;font-size: 10px;&quot;&gt;ex SFTP from NPS&lt;/font&gt;" style="text;html=1;align=center;verticalAlign=middle;whiteSpace=wrap;rounded=0;" vertex="1" parent="1">
          <mxGeometry x="11" y="2082" width="131.5" height="30" as="geometry" />
        </mxCell>
        <mxCell id="LeE3TAbRjy3OZpj1xcED-6" value="&lt;span style=&quot;font-size: 10px;&quot;&gt;S7-1200 PLC&lt;/span&gt;" style="rounded=1;whiteSpace=wrap;html=1;" vertex="1" parent="1">
          <mxGeometry x="38.38" y="2154" width="100" height="14" as="geometry" />
        </mxCell>
        <mxCell id="LeE3TAbRjy3OZpj1xcED-7" value="&lt;div&gt;&lt;font style=&quot;font-size: 10px;&quot;&gt;Lynx / Cogenius&lt;/font&gt;&lt;/div&gt;&lt;div&gt;&lt;font style=&quot;font-size: 8px;&quot;&gt;invoice, customer data&lt;/font&gt;&lt;/div&gt;" style="rounded=1;whiteSpace=wrap;html=1;" vertex="1" parent="1">
          <mxGeometry x="26.75" y="1990" width="108" height="30" as="geometry" />
        </mxCell>
        <mxCell id="LeE3TAbRjy3OZpj1xcED-9" value="&lt;span style=&quot;font-size: 10px;&quot;&gt;Ewon&lt;/span&gt;" style="rounded=1;whiteSpace=wrap;html=1;" vertex="1" parent="1">
          <mxGeometry x="39.13" y="2140" width="100" height="14" as="geometry" />
        </mxCell>
        <mxCell id="LeE3TAbRjy3OZpj1xcED-10" value="" style="rounded=1;whiteSpace=wrap;html=1;dashed=1;" vertex="1" parent="1">
          <mxGeometry x="216.25" y="2130" width="192" height="128" as="geometry" />
        </mxCell>
        <mxCell id="LeE3TAbRjy3OZpj1xcED-11" value="&lt;span style=&quot;font-size: 10px;&quot;&gt;IN: SMA API&lt;/span&gt;" style="rounded=1;whiteSpace=wrap;html=1;dashed=1;" vertex="1" parent="1">
          <mxGeometry x="231.88" y="2187" width="160" height="30" as="geometry" />
        </mxCell>
        <mxCell id="LeE3TAbRjy3OZpj1xcED-12" value="&lt;span style=&quot;font-size: 10px;&quot;&gt;IN: Trevi MQTT + A1&lt;/span&gt;" style="rounded=1;whiteSpace=wrap;html=1;dashed=1;" vertex="1" parent="1">
          <mxGeometry x="230.38" y="2143" width="160" height="30" as="geometry" />
        </mxCell>
        <mxCell id="LeE3TAbRjy3OZpj1xcED-13" value="&lt;span style=&quot;font-size: 10px;&quot;&gt;IN: Fluvius API&lt;/span&gt;" style="rounded=1;whiteSpace=wrap;html=1;dashed=1;" vertex="1" parent="1">
          <mxGeometry x="234.5" y="2062" width="160" height="30" as="geometry" />
        </mxCell>
        <mxCell id="LeE3TAbRjy3OZpj1xcED-14" value="&lt;span style=&quot;font-size: 10px;&quot;&gt;IN: Next SFTP&lt;/span&gt;" style="rounded=1;whiteSpace=wrap;html=1;dashed=1;" vertex="1" parent="1">
          <mxGeometry x="235.25" y="2027" width="160" height="30" as="geometry" />
        </mxCell>
        <mxCell id="LeE3TAbRjy3OZpj1xcED-15" value="&lt;span style=&quot;font-size: 10px;&quot;&gt;IN: Lynx SFTP&lt;/span&gt;" style="rounded=1;whiteSpace=wrap;html=1;dashed=1;" vertex="1" parent="1">
          <mxGeometry x="238.5" y="1990" width="160" height="30" as="geometry" />
        </mxCell>
        <mxCell id="LeE3TAbRjy3OZpj1xcED-16" value="API" style="endArrow=classic;html=1;rounded=0;entryX=0;entryY=0.5;entryDx=0;entryDy=0;exitX=1;exitY=0.5;exitDx=0;exitDy=0;" edge="1" parent="1" source="LeE3TAbRjy3OZpj1xcED-1" target="LeE3TAbRjy3OZpj1xcED-13">
          <mxGeometry width="50" height="50" relative="1" as="geometry">
            <mxPoint x="260.75" y="2034" as="sourcePoint" />
            <mxPoint x="500.75" y="2054" as="targetPoint" />
          </mxGeometry>
        </mxCell>
        <mxCell id="LeE3TAbRjy3OZpj1xcED-17" value="MQTT" style="endArrow=classic;html=1;rounded=0;exitX=1;exitY=0.5;exitDx=0;exitDy=0;entryX=0;entryY=0.25;entryDx=0;entryDy=0;" edge="1" parent="1" source="LeE3TAbRjy3OZpj1xcED-9" target="LeE3TAbRjy3OZpj1xcED-12">
          <mxGeometry width="50" height="50" relative="1" as="geometry">
            <mxPoint x="-52.37" y="2044" as="sourcePoint" />
            <mxPoint x="-2.37" y="1994" as="targetPoint" />
          </mxGeometry>
        </mxCell>
        <mxCell id="LeE3TAbRjy3OZpj1xcED-18" value="API" style="endArrow=classic;html=1;rounded=0;exitX=1;exitY=0.5;exitDx=0;exitDy=0;entryX=0;entryY=0.5;entryDx=0;entryDy=0;" edge="1" parent="1" source="LeE3TAbRjy3OZpj1xcED-3" target="LeE3TAbRjy3OZpj1xcED-11">
          <mxGeometry width="50" height="50" relative="1" as="geometry">
            <mxPoint x="367.63" y="2064" as="sourcePoint" />
            <mxPoint x="417.63" y="2014" as="targetPoint" />
          </mxGeometry>
        </mxCell>
        <mxCell id="LeE3TAbRjy3OZpj1xcED-19" value="SFTP" style="endArrow=classic;html=1;rounded=0;entryX=0;entryY=0.5;entryDx=0;entryDy=0;exitX=1;exitY=0.5;exitDx=0;exitDy=0;" edge="1" parent="1" source="LeE3TAbRjy3OZpj1xcED-4" target="LeE3TAbRjy3OZpj1xcED-14">
          <mxGeometry width="50" height="50" relative="1" as="geometry">
            <mxPoint x="141.5" y="2032" as="sourcePoint" />
            <mxPoint x="511.5" y="2070" as="targetPoint" />
          </mxGeometry>
        </mxCell>
        <mxCell id="LeE3TAbRjy3OZpj1xcED-20" value="SFTP" style="endArrow=classic;html=1;rounded=0;entryX=0;entryY=0.5;entryDx=0;entryDy=0;exitX=1;exitY=0.5;exitDx=0;exitDy=0;" edge="1" parent="1" source="LeE3TAbRjy3OZpj1xcED-7" target="LeE3TAbRjy3OZpj1xcED-15">
          <mxGeometry width="50" height="50" relative="1" as="geometry">
            <mxPoint x="144.75" y="2007" as="sourcePoint" />
            <mxPoint x="514.75" y="2077" as="targetPoint" />
          </mxGeometry>
        </mxCell>
        <mxCell id="LeE3TAbRjy3OZpj1xcED-22" value="MQTT" style="endArrow=classic;html=1;rounded=0;exitX=1;exitY=0.5;exitDx=0;exitDy=0;entryX=0.005;entryY=0.578;entryDx=0;entryDy=0;entryPerimeter=0;" edge="1" parent="1" source="LeE3TAbRjy3OZpj1xcED-6" target="LeE3TAbRjy3OZpj1xcED-12">
          <mxGeometry width="50" height="50" relative="1" as="geometry">
            <mxPoint x="138.63" y="2166" as="sourcePoint" />
            <mxPoint x="227.63" y="2177" as="targetPoint" />
          </mxGeometry>
        </mxCell>
        <mxCell id="LeE3TAbRjy3OZpj1xcED-23" value="MQTT" style="endArrow=classic;html=1;rounded=0;exitX=1;exitY=0.5;exitDx=0;exitDy=0;entryX=0;entryY=1;entryDx=0;entryDy=0;" edge="1" parent="1" source="LeE3TAbRjy3OZpj1xcED-2" target="LeE3TAbRjy3OZpj1xcED-12">
          <mxGeometry width="50" height="50" relative="1" as="geometry">
            <mxPoint x="196.63" y="2298" as="sourcePoint" />
            <mxPoint x="496.63" y="2080.5" as="targetPoint" />
          </mxGeometry>
        </mxCell>
        <mxCell id="LeE3TAbRjy3OZpj1xcED-24" value="" style="endArrow=classic;html=1;rounded=0;exitX=1;exitY=0.25;exitDx=0;exitDy=0;strokeColor=#000000;entryX=0;entryY=1;entryDx=0;entryDy=0;dashed=1;" edge="1" parent="1" source="LeE3TAbRjy3OZpj1xcED-11">
          <mxGeometry width="50" height="50" relative="1" as="geometry">
            <mxPoint x="668.25" y="2288" as="sourcePoint" />
            <mxPoint x="500.25" y="1827" as="targetPoint" />
          </mxGeometry>
        </mxCell>
        <mxCell id="LeE3TAbRjy3OZpj1xcED-25" value="" style="endArrow=classic;html=1;rounded=0;exitX=1;exitY=0.25;exitDx=0;exitDy=0;strokeColor=#000000;entryX=0;entryY=1;entryDx=0;entryDy=0;dashed=1;" edge="1" parent="1" source="LeE3TAbRjy3OZpj1xcED-12">
          <mxGeometry width="50" height="50" relative="1" as="geometry">
            <mxPoint x="399.25" y="2169" as="sourcePoint" />
            <mxPoint x="500.25" y="1827" as="targetPoint" />
          </mxGeometry>
        </mxCell>
        <mxCell id="LeE3TAbRjy3OZpj1xcED-26" value="" style="endArrow=classic;html=1;rounded=0;exitX=1;exitY=0.25;exitDx=0;exitDy=0;strokeColor=#000000;entryX=0;entryY=1;entryDx=0;entryDy=0;dashed=1;" edge="1" parent="1" source="LeE3TAbRjy3OZpj1xcED-13">
          <mxGeometry width="50" height="50" relative="1" as="geometry">
            <mxPoint x="399.25" y="2112" as="sourcePoint" />
            <mxPoint x="500.25" y="1827" as="targetPoint" />
          </mxGeometry>
        </mxCell>
        <mxCell id="LeE3TAbRjy3OZpj1xcED-27" value="" style="endArrow=classic;html=1;rounded=0;exitX=1;exitY=0.25;exitDx=0;exitDy=0;strokeColor=#000000;entryX=0;entryY=1;entryDx=0;entryDy=0;dashed=1;" edge="1" parent="1" source="LeE3TAbRjy3OZpj1xcED-14">
          <mxGeometry width="50" height="50" relative="1" as="geometry">
            <mxPoint x="399.25" y="2042" as="sourcePoint" />
            <mxPoint x="500.25" y="1827" as="targetPoint" />
          </mxGeometry>
        </mxCell>
        <mxCell id="LeE3TAbRjy3OZpj1xcED-28" value="" style="endArrow=classic;html=1;rounded=0;exitX=1;exitY=0.25;exitDx=0;exitDy=0;strokeColor=#000000;entryX=0;entryY=1;entryDx=0;entryDy=0;dashed=1;" edge="1" parent="1" source="LeE3TAbRjy3OZpj1xcED-15">
          <mxGeometry width="50" height="50" relative="1" as="geometry">
            <mxPoint x="399.25" y="1984" as="sourcePoint" />
            <mxPoint x="500.25" y="1827" as="targetPoint" />
          </mxGeometry>
        </mxCell>
        <mxCell id="LeE3TAbRjy3OZpj1xcED-29" value="IN(/OUT)" style="text;html=1;align=center;verticalAlign=middle;whiteSpace=wrap;rounded=0;fontStyle=1" vertex="1" parent="1">
          <mxGeometry x="269.25" y="2224" width="90" height="30" as="geometry" />
        </mxCell>
        <mxCell id="LeE3TAbRjy3OZpj1xcED-30" value="" style="image;sketch=0;aspect=fixed;html=1;points=[];align=center;fontSize=12;image=img/lib/mscae/Docker.svg;" vertex="1" parent="1">
          <mxGeometry x="236.25" y="2229" width="32.98" height="27.04" as="geometry" />
        </mxCell>
        <mxCell id="LeE3TAbRjy3OZpj1xcED-32" value="&lt;span style=&quot;font-size: 10px;&quot;&gt;Lifepowr&lt;/span&gt;&lt;br&gt;&lt;div&gt;&lt;font style=&quot;font-size: 8px;&quot;&gt;forecast&lt;/font&gt;&lt;/div&gt;" style="rounded=1;whiteSpace=wrap;html=1;" vertex="1" parent="1">
          <mxGeometry x="24.88" y="1949" width="108" height="30" as="geometry" />
        </mxCell>
        <mxCell id="LeE3TAbRjy3OZpj1xcED-33" value="&lt;span style=&quot;font-size: 10px;&quot;&gt;INOUT: Forecast Lifepowr&lt;/span&gt;" style="rounded=1;whiteSpace=wrap;html=1;dashed=1;" vertex="1" parent="1">
          <mxGeometry x="235.88" y="1949" width="160" height="30" as="geometry" />
        </mxCell>
        <mxCell id="LeE3TAbRjy3OZpj1xcED-34" value="API" style="endArrow=classic;html=1;rounded=0;entryX=0;entryY=0.5;entryDx=0;entryDy=0;exitX=1;exitY=0.5;exitDx=0;exitDy=0;" edge="1" parent="1" source="LeE3TAbRjy3OZpj1xcED-32" target="LeE3TAbRjy3OZpj1xcED-33">
          <mxGeometry width="50" height="50" relative="1" as="geometry">
            <mxPoint x="142.88" y="1954" as="sourcePoint" />
            <mxPoint x="512.88" y="1992" as="targetPoint" />
          </mxGeometry>
        </mxCell>
        <mxCell id="LeE3TAbRjy3OZpj1xcED-35" value="&lt;span style=&quot;font-size: 10px;&quot;&gt;Next Kraftwerke&lt;/span&gt;&lt;div&gt;&lt;font style=&quot;font-size: 8px;&quot;&gt;forecast (nominations)&lt;/font&gt;&lt;/div&gt;" style="rounded=1;whiteSpace=wrap;html=1;" vertex="1" parent="1">
          <mxGeometry x="905.38" y="1939" width="108" height="30" as="geometry" />
        </mxCell>
        <mxCell id="LeE3TAbRjy3OZpj1xcED-36" value="SFTP" style="endArrow=classic;html=1;rounded=0;exitX=1;exitY=0.5;exitDx=0;exitDy=0;entryX=0;entryY=0.5;entryDx=0;entryDy=0;dashed=1;" edge="1" parent="1" source="LeE3TAbRjy3OZpj1xcED-33" target="LeE3TAbRjy3OZpj1xcED-35">
          <mxGeometry width="50" height="50" relative="1" as="geometry">
            <mxPoint x="143.63" y="1982" as="sourcePoint" />
            <mxPoint x="245.63" y="1964" as="targetPoint" />
          </mxGeometry>
        </mxCell>
        <mxCell id="LeE3TAbRjy3OZpj1xcED-37" value="&lt;span style=&quot;font-size: 10px;&quot;&gt;Lifepowr&lt;/span&gt;&lt;br&gt;&lt;div&gt;&lt;font style=&quot;font-size: 8px;&quot;&gt;flex data&lt;/font&gt;&lt;/div&gt;" style="rounded=1;whiteSpace=wrap;html=1;" vertex="1" parent="1">
          <mxGeometry x="24.88" y="1880" width="108" height="30" as="geometry" />
        </mxCell>
        <mxCell id="LeE3TAbRjy3OZpj1xcED-38" value="&lt;span style=&quot;font-size: 10px;&quot;&gt;INOUT: Flex data Lifepowr&lt;/span&gt;" style="rounded=1;whiteSpace=wrap;html=1;dashed=1;" vertex="1" parent="1">
          <mxGeometry x="235.88" y="1880" width="160" height="30" as="geometry" />
        </mxCell>
        <mxCell id="LeE3TAbRjy3OZpj1xcED-39" value="API" style="endArrow=classic;html=1;rounded=0;entryX=0;entryY=0.5;entryDx=0;entryDy=0;exitX=1;exitY=0.5;exitDx=0;exitDy=0;" edge="1" parent="1" source="LeE3TAbRjy3OZpj1xcED-37" target="LeE3TAbRjy3OZpj1xcED-38">
          <mxGeometry width="50" height="50" relative="1" as="geometry">
            <mxPoint x="142.88" y="1885" as="sourcePoint" />
            <mxPoint x="512.88" y="1923" as="targetPoint" />
          </mxGeometry>
        </mxCell>
        <mxCell id="LeE3TAbRjy3OZpj1xcED-40" value="&lt;div&gt;&lt;font style=&quot;font-size: 10px;&quot;&gt;Cogenius&lt;/font&gt;&lt;/div&gt;&lt;div&gt;&lt;font style=&quot;font-size: 8px;&quot;&gt;invoice data: flex reward&lt;/font&gt;&lt;/div&gt;" style="rounded=1;whiteSpace=wrap;html=1;" vertex="1" parent="1">
          <mxGeometry x="905.38" y="1883" width="108" height="30" as="geometry" />
        </mxCell>
        <mxCell id="LeE3TAbRjy3OZpj1xcED-41" value="SFTP" style="endArrow=classic;html=1;rounded=0;exitX=1;exitY=0.5;exitDx=0;exitDy=0;entryX=0;entryY=0.25;entryDx=0;entryDy=0;dashed=1;" edge="1" parent="1" source="LeE3TAbRjy3OZpj1xcED-38" target="LeE3TAbRjy3OZpj1xcED-40">
          <mxGeometry width="50" height="50" relative="1" as="geometry">
            <mxPoint x="143.63" y="1913" as="sourcePoint" />
            <mxPoint x="245.63" y="1895" as="targetPoint" />
          </mxGeometry>
        </mxCell>
        <mxCell id="LeE3TAbRjy3OZpj1xcED-42" value="&lt;span style=&quot;font-size: 10px;&quot;&gt;Powernaut&lt;/span&gt;&lt;br&gt;&lt;div&gt;&lt;font style=&quot;font-size: 8px;&quot;&gt;flex data&lt;/font&gt;&lt;/div&gt;" style="rounded=1;whiteSpace=wrap;html=1;" vertex="1" parent="1">
          <mxGeometry x="24.63" y="1915" width="108" height="30" as="geometry" />
        </mxCell>
        <mxCell id="LeE3TAbRjy3OZpj1xcED-43" value="&lt;span style=&quot;font-size: 10px;&quot;&gt;INOUT: Flex data Powernaut&lt;/span&gt;" style="rounded=1;whiteSpace=wrap;html=1;dashed=1;" vertex="1" parent="1">
          <mxGeometry x="235.63" y="1915" width="160" height="30" as="geometry" />
        </mxCell>
        <mxCell id="LeE3TAbRjy3OZpj1xcED-44" value="API" style="endArrow=classic;html=1;rounded=0;entryX=0;entryY=0.5;entryDx=0;entryDy=0;exitX=1;exitY=0.5;exitDx=0;exitDy=0;" edge="1" parent="1" source="LeE3TAbRjy3OZpj1xcED-42" target="LeE3TAbRjy3OZpj1xcED-43">
          <mxGeometry width="50" height="50" relative="1" as="geometry">
            <mxPoint x="142.63" y="1920" as="sourcePoint" />
            <mxPoint x="512.63" y="1958" as="targetPoint" />
          </mxGeometry>
        </mxCell>
        <mxCell id="LeE3TAbRjy3OZpj1xcED-45" value="SFTP" style="endArrow=classic;html=1;rounded=0;exitX=1;exitY=0.5;exitDx=0;exitDy=0;dashed=1;entryX=0;entryY=0.75;entryDx=0;entryDy=0;" edge="1" parent="1" source="LeE3TAbRjy3OZpj1xcED-43" target="LeE3TAbRjy3OZpj1xcED-40">
          <mxGeometry width="50" height="50" relative="1" as="geometry">
            <mxPoint x="143.38" y="1948" as="sourcePoint" />
            <mxPoint x="905.63" y="1920" as="targetPoint" />
          </mxGeometry>
        </mxCell>
        <mxCell id="LeE3TAbRjy3OZpj1xcED-47" value="" style="rounded=0;whiteSpace=wrap;html=1;fillColor=none;" vertex="1" parent="1">
          <mxGeometry x="196.73" y="2389.38" width="653.27" height="53.25" as="geometry" />
        </mxCell>
        <mxCell id="LeE3TAbRjy3OZpj1xcED-52" value="realtime (5s-5min)" style="text;html=1;align=right;verticalAlign=middle;whiteSpace=wrap;rounded=0;fontStyle=0;fontSize=10;" vertex="1" parent="1">
          <mxGeometry x="238.75" y="2236.5" width="162.25" height="30" as="geometry" />
        </mxCell>
        <mxCell id="LeE3TAbRjy3OZpj1xcED-53" value="daily (24h)" style="text;html=1;align=right;verticalAlign=middle;whiteSpace=wrap;rounded=0;fontStyle=0;fontSize=10;" vertex="1" parent="1">
          <mxGeometry x="232.25" y="2098" width="162.25" height="30" as="geometry" />
        </mxCell>
        <mxCell id="LeE3TAbRjy3OZpj1xcED-54" value="cluster: production" style="text;html=1;align=right;verticalAlign=middle;whiteSpace=wrap;rounded=0;fontStyle=1" vertex="1" parent="1">
          <mxGeometry x="719.75" y="2359.38" width="127.25" height="30" as="geometry" />
        </mxCell>
        <mxCell id="LeE3TAbRjy3OZpj1xcED-55" value="cluster: development" style="text;html=1;align=right;verticalAlign=middle;whiteSpace=wrap;rounded=0;fontStyle=1" vertex="1" parent="1">
          <mxGeometry x="719.75" y="2420" width="127.25" height="30" as="geometry" />
        </mxCell>
      </root>
    </mxGraphModel>
  </diagram>
</mxfile>
